<svg height="512" viewBox="0 0 64 64" width="512" xmlns="http://www.w3.org/2000/svg"><g id="book-laptop-globe-education-online"><circle cx="42" cy="19" fill="#00ddc2" r="15"/><path d="m5 56a2.006 2.006 0 0 0 -2 2v-32a2.006 2.006 0 0 1 2-2h2v32z" fill="#ff9811"/><path d="m23 56v4h-18a2.015 2.015 0 0 1 -2-2 2.006 2.006 0 0 1 2-2z" fill="#ff5023"/><path d="m7 24h28v32h-28z" fill="#b39a7c"/><path d="m23 34h38v26h-38z" fill="#d80027"/><path d="m42 42v15h-16v-20h12a4 4 0 0 1 4 4z" fill="#fff"/><path d="m42 57v-16a4 4 0 0 1 4-4h12v20z" fill="#e9e9ea"/><path d="m12 29h18v2h-18z"/><path d="m61 33h-11.27a16 16 0 1 0 -23.73-14 15.781 15.781 0 0 0 .51 4h-21.51a3.009 3.009 0 0 0 -3 3v32a3.009 3.009 0 0 0 3 3h56a1 1 0 0 0 1-1v-26a1 1 0 0 0 -1-1zm-13.64-1.07a15.32 15.32 0 0 0 2.12-3.95 18.439 18.439 0 0 1 2.45.87 14.013 14.013 0 0 1 -4.57 3.08zm5.91-4.66a19.027 19.027 0 0 0 -3.2-1.2 26.454 26.454 0 0 0 .89-6.07h4.99a13.862 13.862 0 0 1 -2.68 7.27zm2.68-9.27h-4.99a26.286 26.286 0 0 0 -.89-6.06 19.454 19.454 0 0 0 3.19-1.22 13.853 13.853 0 0 1 2.69 7.28zm-4.01-8.85a18.084 18.084 0 0 1 -2.46.88 15.227 15.227 0 0 0 -2.12-3.96 14.162 14.162 0 0 1 4.58 3.08zm-8.94-3.99c1.75.54 3.39 2.46 4.51 5.33a29.8 29.8 0 0 1 -4.51.48zm0 7.82a31.336 31.336 0 0 0 5.13-.57 24.467 24.467 0 0 1 .83 5.59h-5.96zm0 7.02h5.96a24.467 24.467 0 0 1 -.83 5.59 30.4 30.4 0 0 0 -5.13-.56zm0 7.03a29.66 29.66 0 0 1 4.51.48c-1.12 2.87-2.76 4.79-4.51 5.33zm-2-21.87v5.81a29.8 29.8 0 0 1 -4.51-.48c1.12-2.87 2.76-4.79 4.51-5.33zm-4.51 22.35a29.8 29.8 0 0 1 4.51-.48v5.81c-1.75-.54-3.38-2.45-4.51-5.33zm.14 4.4c-.21-.09-.42-.18-.63-.28v-.62a10.236 10.236 0 0 0 .63.9zm-.63-6.34v-1.57a1 1 0 0 0 -.66-.93 23.655 23.655 0 0 1 -.29-3.07h5.95v5.03a31.235 31.235 0 0 0 -5 .54zm-.96-7.57a24.467 24.467 0 0 1 .83-5.59 31.459 31.459 0 0 0 5.13.57v5.02zm1.6-11.93a15.227 15.227 0 0 0 -2.12 3.96 18.084 18.084 0 0 1 -2.46-.88 14.162 14.162 0 0 1 4.58-3.08zm-5.9 4.65a19.454 19.454 0 0 0 3.19 1.22 26.286 26.286 0 0 0 -.89 6.06h-4.99a13.853 13.853 0 0 1 2.69-7.28zm2.28 9.28a29.34 29.34 0 0 0 .26 3h-4.68a13.24 13.24 0 0 1 -.56-3zm-29.02 6a1 1 0 0 1 1-1h1v30h-1a3 3 0 0 0 -1 .18zm18 33h-17a1 1 0 0 1 0-2h17zm0-25h-10v2h10v19h-14v-30h26v8h-11a1 1 0 0 0 -1 1zm38 25h-36v-24h36z"/><path d="m58 36h-12a4.994 4.994 0 0 0 -4 2.03 4.994 4.994 0 0 0 -4-2.03h-12a1 1 0 0 0 -1 1v20a1 1 0 0 0 1 1h32a1 1 0 0 0 1-1v-20a1 1 0 0 0 -1-1zm-17 20h-14v-18h11a3.009 3.009 0 0 1 3 3zm16 0h-14v-15a3.009 3.009 0 0 1 3-3h11z"/><path d="m45 40h10v2h-10z"/><path d="m45 44h10v2h-10z"/><path d="m45 48h10v2h-10z"/><path d="m45 52h10v2h-10z"/><path d="m29 40h10v2h-10z"/><path d="m29 44h10v2h-10z"/><path d="m29 48h10v2h-10z"/><path d="m29 52h10v2h-10z"/></g></svg>