<svg id="Layer_1_1_" enable-background="new 0 0 64 64" height="512" viewBox="0 0 64 64" width="512" xmlns="http://www.w3.org/2000/svg"><path d="m20 12v24h6 10v-24z" fill="#3449a3"/><path d="m2 2v34h5v-10h8v10h5v-24-10z" fill="#3449a3"/><path d="m7 26h8v10h-8z" fill="#57a5ff"/><path d="m17 52c-3.314 0-6-2.686-6-6v-2h-8c0 7.732 6.268 14 14 14v3l6-6-6-6z" fill="#d64528"/><path d="m47 6v-3l-6 6 6 6v-3c3.314 0 6 2.686 6 6v2h8c0-7.732-6.268-14-14-14z" fill="#d64528"/><path d="m44 28v10 24h5v-10h4 4v10h5v-34z" fill="#2e872b"/><path d="m53 52h4v10h-4z" fill="#57a5ff"/><path d="m49 52h4v10h-4z" fill="#57a5ff"/><path d="m20 12h2v24h-2z" fill="#2a3b85"/><path d="m38 38h-10v24h16v-24z" fill="#2e872b"/><path d="m42 38h2v24h-2z" fill="#1f5c1d"/><g fill="#57a5ff"><path d="m6 5h2v2h-2z"/><path d="m10 5h2v2h-2z"/><path d="m14 5h2v2h-2z"/><path d="m6 10h2v2h-2z"/><path d="m10 10h2v2h-2z"/><path d="m14 10h2v2h-2z"/><path d="m6 15h2v2h-2z"/><path d="m10 15h2v2h-2z"/><path d="m14 15h2v2h-2z"/><path d="m6 20h2v2h-2z"/><path d="m10 20h2v2h-2z"/><path d="m14 20h2v2h-2z"/><path d="m23 15h2v2h-2z"/><path d="m27 15h2v2h-2z"/><path d="m31 15h2v2h-2z"/><path d="m23 20h2v2h-2z"/><path d="m27 20h2v2h-2z"/><path d="m31 20h2v2h-2z"/><path d="m23 25h2v2h-2z"/><path d="m27 25h2v2h-2z"/><path d="m31 25h2v2h-2z"/><path d="m56 46h2v2h-2z"/><path d="m52 46h2v2h-2z"/><path d="m48 46h2v2h-2z"/><path d="m39 51h2v2h-2z"/><path d="m35 51h2v2h-2z"/><path d="m31 51h2v2h-2z"/><path d="m31 41h10v2h-10z"/><path d="m31 46h10v2h-10z"/><path d="m47 41h12v2h-12z"/><path d="m47 36h12v2h-12z"/><path d="m47 31h12v2h-12z"/></g></svg>