<?xml version="1.0" encoding="utf-8"?>
<!-- Generator: Adobe Illustrator 21.0.0, SVG Export Plug-In . SVG Version: 6.00 Build 0)  -->
<svg xmlns="http://www.w3.org/2000/svg" xmlns:xlink="http://www.w3.org/1999/xlink" version="1.1" id="Layer_1" x="0px" y="0px" viewBox="0 0 256 256" style="enable-background:new 0 0 256 256;" xml:space="preserve" width="512" height="512">
<style type="text/css">
	.st0{fill:#B26E3B;}
	.st1{fill:#E9E9EA;}
	.st2{fill:#6DCC6D;}
	.st3{fill:#898989;}
	.st4{fill:#FFCD29;}
	.st5{fill:#EA4647;}
	.st6{fill:#55ACD5;}
	.st7{fill:#231F20;}
</style>
<g id="Layer_50">
	<path class="st0" d="M180.7,86.3c-21.7,0-39.2-17.6-39.2-39.2c0-0.3,0-0.5,0-0.8H85c-4.2,0-7.7-3.4-7.7-7.7c0-1.9,0.7-3.7,2-5.1   H47.2c-6.1,0-11.1,5-11.1,11.1v197.8c0,6.1,5,11.1,11.1,11.1h140.6c6.1,0,11.1-5,11.1-11.1V81.8C193.3,84.8,187.1,86.3,180.7,86.3z   "/>
	<path class="st1" d="M180.7,86.3c-21.7,0-39.2-17.6-39.2-39.2c0-0.3,0-0.5,0-0.8H85c-2.2,0-4.3-0.9-5.7-2.6H47.2   c-0.5,0-0.8,0.4-0.9,0.9v197.8c0,0.5,0.4,0.8,0.9,0.9h111.2l30.3-30.3V85.5C186,86,183.4,86.3,180.7,86.3z"/>
	<path class="st2" d="M113.3,174.9h10.1c2.6,0,4.7,2.1,4.7,4.7v10.1c0,2.6-2.1,4.7-4.7,4.7h-10.1c-2.6,0-4.7-2.1-4.7-4.7v-10.1   C108.6,177,110.7,174.9,113.3,174.9z"/>
	<path class="st2" d="M146.2,115.8h10.1c2.6,0,4.7,2.1,4.7,4.7v10.1c0,2.6-2.1,4.7-4.7,4.7h-10.1c-2.6,0-4.7-2.1-4.7-4.7v-10.1   C141.5,117.9,143.6,115.8,146.2,115.8z"/>
	<path class="st3" d="M80.4,115.8h10.1c2.6,0,4.7,2.1,4.7,4.7v10.1c0,2.6-2.1,4.7-4.7,4.7H80.4c-2.6,0-4.7-2.1-4.7-4.7v-10.1   C75.8,117.9,77.8,115.8,80.4,115.8z"/>
	<path class="st3" d="M80.4,174.9h10.1c2.6,0,4.7,2.1,4.7,4.7v10.1c0,2.6-2.1,4.7-4.7,4.7H80.4c-2.6,0-4.7-2.1-4.7-4.7v-10.1   C75.8,177,77.8,174.9,80.4,174.9z"/>
	<path class="st3" d="M113.3,115.8h10.1c2.6,0,4.7,2.1,4.7,4.7v10.1c0,2.6-2.1,4.7-4.7,4.7h-10.1c-2.6,0-4.7-2.1-4.7-4.7v-10.1   C108.6,117.9,110.7,115.8,113.3,115.8z"/>
	<path class="st3" d="M146.2,174.9h10.1c2.6,0,4.7,2.1,4.7,4.7v10.1c0,2.6-2.1,4.7-4.7,4.7h-10.1c-2.6,0-4.7-2.1-4.7-4.7v-10.1   C141.5,177,143.6,174.9,146.2,174.9z"/>
	<path class="st4" d="M159.2,213c-0.5,0-0.8,0.4-0.9,0.9v29.4l30.3-30.3L159.2,213z"/>
	<circle class="st2" cx="180.7" cy="47.1" r="39.2"/>
	<path class="st1" d="M204.5,31.1c-2-2-5.3-2-7.3,0l-20.8,20.8l-7.2-7.9c-1.9-2.1-5.2-2.3-7.3-0.4c-2.1,1.9-2.3,5.2-0.4,7.3   c0,0,0,0.1,0.1,0.1l10.8,11.9c1.9,2.1,5.2,2.3,7.3,0.3c0.1-0.1,0.1-0.1,0.2-0.2l24.6-24.6C206.5,36.4,206.5,33.1,204.5,31.1   C204.5,31.1,204.5,31.1,204.5,31.1z"/>
	<path class="st1" d="M117.7,7.9c-10.2,0-18.4,8.3-18.4,18.4v4.6h10.3v-4.6c0-4.5,3.7-8.2,8.2-8.2s8.2,3.7,8.2,8.2v4.6h10.3v-4.6   C136.2,16.1,127.9,7.9,117.7,7.9z"/>
	<path class="st3" d="M85,30.9c-4.2,0-7.7,3.4-7.7,7.7s3.4,7.7,7.7,7.7h56.5c0.1-5.3,1.3-10.5,3.5-15.4H85z"/>
	<path class="st4" d="M74.7,0c-1.4,0-2.5,1.1-2.5,2.5c0,0.7,0.3,1.3,0.7,1.8c1,1,2.6,0.9,3.6-0.1c0.4-0.5,0.7-1.1,0.7-1.7   C77.2,1.1,76.1,0,74.7,0z"/>
	<path class="st5" d="M230.5,192.8c-0.3-1.4-1.6-2.2-2.9-2c-1.4,0.3-2.2,1.6-2,2.9s1.6,2.2,2.9,2c0.5-0.1,0.9-0.3,1.3-0.7   C230.5,194.4,230.7,193.6,230.5,192.8z"/>
	<path class="st2" d="M61.9,12.4c-3.8-0.7-6.8-3.7-7.5-7.5c0-0.1-0.1-0.2-0.2-0.1c-0.1,0-0.1,0.1-0.1,0.1c-0.7,3.8-3.7,6.8-7.5,7.5   c-0.1,0-0.2,0.1-0.1,0.2c0,0.1,0.1,0.1,0.1,0.1c3.8,0.7,6.8,3.7,7.5,7.5c0,0.1,0.1,0.2,0.2,0.1c0.1,0,0.1-0.1,0.1-0.1   c0.7-3.8,3.7-6.8,7.5-7.5c0.1,0,0.2-0.1,0.1-0.2C62,12.4,62,12.4,61.9,12.4z"/>
	<path class="st6" d="M220.6,166.4h-1.8v-1.8c0-1.4-1.1-2.5-2.5-2.5s-2.5,1.1-2.5,2.5v1.8h-1.8c-1.4,0-2.5,1.1-2.5,2.5   s1.1,2.5,2.5,2.5h1.8v1.8c0,1.4,1.1,2.5,2.5,2.5s2.5-1.1,2.5-2.5v-1.8h1.8c1.4,0,2.5-1.1,2.5-2.5S222,166.4,220.6,166.4   L220.6,166.4z"/>
	<path class="st7" d="M190.9,212c-0.4-0.9-1.3-1.5-2.3-1.5h-29.4c-1.9,0-3.4,1.5-3.4,3.4v29.4c0,1.4,1.1,2.5,2.5,2.5   c0.7,0,1.3-0.3,1.8-0.7l30.3-30.3C191.1,214,191.3,212.9,190.9,212z M160.9,237.2v-21.7h21.7L160.9,237.2z"/>
	<path class="st7" d="M117.7,5.4c-11.6,0-20.9,9.4-20.9,20.9v4.6c0,1.4,1.1,2.5,2.5,2.5h10.3c1.4,0,2.5-1.1,2.5-2.5v-4.6   c0-3.1,2.5-5.7,5.7-5.7s5.7,2.5,5.7,5.7v4.6c0,1.4,1.1,2.5,2.5,2.5h10.3c1.4,0,2.5-1.1,2.5-2.5v-4.6   C138.7,14.7,129.3,5.4,117.7,5.4z M133.7,28.4h-5.3v-2.1c0-5.9-4.8-10.7-10.7-10.7s-10.7,4.8-10.7,10.7v2.1h-5.3v-2.1   c0-8.8,7.1-15.9,15.9-15.9c8.8,0,15.9,7.1,15.9,15.9L133.7,28.4z"/>
	<path class="st7" d="M105.7,86.9H74.6c-1.4,0-2.5,1.1-2.5,2.5s1.1,2.5,2.5,2.5h31.1c1.4,0,2.5-1.1,2.5-2.5S107.1,86.9,105.7,86.9z"/>
	<path class="st7" d="M148.9,100.1H74.6c-1.4,0-2.5,1.1-2.5,2.5s1.1,2.5,2.5,2.5h74.3c1.4,0,2.5-1.1,2.5-2.5   S150.2,100.1,148.9,100.1z"/>
	<path class="st7" d="M105.7,146H74.6c-1.4,0-2.5,1.1-2.5,2.5s1.1,2.5,2.5,2.5h31.1c1.4,0,2.5-1.1,2.5-2.5S107.1,146,105.7,146z"/>
	<path class="st7" d="M148.9,159.2H74.6c-1.4,0-2.5,1.1-2.5,2.5s1.1,2.5,2.5,2.5h74.3c1.4,0,2.5-1.1,2.5-2.5   S150.2,159.2,148.9,159.2z"/>
	<path class="st7" d="M90.5,113.3H80.4c-4,0-7.2,3.2-7.2,7.2v10.1c0,4,3.2,7.2,7.2,7.2h10.1c4,0,7.2-3.2,7.2-7.2v-10.1   C97.7,116.6,94.4,113.3,90.5,113.3z M92.7,130.6c0,1.2-1,2.2-2.2,2.2H80.4c-1.2,0-2.2-1-2.2-2.2v-10.1c0-1.2,1-2.2,2.2-2.2h10.1   c1.2,0,2.2,1,2.2,2.2V130.6z"/>
	<path class="st7" d="M90.5,172.4H80.4c-4,0-7.2,3.2-7.2,7.2v10.1c0,4,3.2,7.2,7.2,7.2h10.1c4,0,7.2-3.2,7.2-7.2v-10.1   C97.7,175.6,94.4,172.4,90.5,172.4z M92.7,189.6c0,1.2-1,2.2-2.2,2.2H80.4c-1.2,0-2.2-1-2.2-2.2v-10.1c0-1.2,1-2.2,2.2-2.2h10.1   c1.2,0,2.2,1,2.2,2.2V189.6z"/>
	<path class="st7" d="M123.4,113.3h-10.1c-4,0-7.2,3.2-7.2,7.2v10.1c0,4,3.2,7.2,7.2,7.2h10.1c4,0,7.2-3.2,7.2-7.2v-10.1   C130.5,116.6,127.3,113.3,123.4,113.3z M125.5,130.6c0,1.2-1,2.2-2.2,2.2h-10.1c-1.2,0-2.2-1-2.2-2.2v-10.1c0-1.2,1-2.2,2.2-2.2   h10.1c1.2,0,2.2,1,2.2,2.2L125.5,130.6z"/>
	<path class="st7" d="M123.4,172.4h-10.1c-4,0-7.2,3.2-7.2,7.2v10.1c0,4,3.2,7.2,7.2,7.2h10.1c4,0,7.2-3.2,7.2-7.2v-10.1   C130.5,175.6,127.3,172.4,123.4,172.4z M125.5,189.6c0,1.2-1,2.2-2.2,2.2h-10.1c-1.2,0-2.2-1-2.2-2.2v-10.1c0-1.2,1-2.2,2.2-2.2   h10.1c1.2,0,2.2,1,2.2,2.2L125.5,189.6z"/>
	<path class="st7" d="M135.1,174.4c-1-1-2.6-1-3.5,0l-10.3,10.3l-3.6-3.9c-0.9-1-2.5-1.1-3.5-0.2c-1,0.9-1.1,2.5-0.2,3.5   c0,0,0,0,0.1,0.1l5.4,5.9c0.5,0.5,1.1,0.8,1.8,0.8h0.1c0.7,0,1.3-0.3,1.8-0.7l12.2-12.2C136.1,177,136.1,175.4,135.1,174.4   C135.1,174.4,135.1,174.4,135.1,174.4z"/>
	<path class="st7" d="M156.2,172.4h-10.1c-4,0-7.2,3.2-7.2,7.2v10.1c0,4,3.2,7.2,7.2,7.2h10.1c4,0,7.2-3.2,7.2-7.2v-10.1   C163.4,175.6,160.2,172.4,156.2,172.4z M158.4,189.6c0,1.2-1,2.2-2.2,2.2h-10.1c-1.2,0-2.2-1-2.2-2.2v-10.1c0-1.2,1-2.2,2.2-2.2   h10.1c1.2,0,2.2,1,2.2,2.2V189.6z"/>
	<path class="st7" d="M156.2,113.3h-10.1c-4,0-7.2,3.2-7.2,7.2v10.1c0,4,3.2,7.2,7.2,7.2h10.1c4,0,7.2-3.2,7.2-7.2v-10.1   C163.4,116.6,160.2,113.3,156.2,113.3z M158.4,130.6c0,1.2-1,2.2-2.2,2.2h-10.1c-1.2,0-2.2-1-2.2-2.2v-10.1c0-1.2,1-2.2,2.2-2.2   h10.1c1.2,0,2.2,1,2.2,2.2V130.6z"/>
	<path class="st7" d="M168,115.3c-1-1-2.6-1-3.5,0l-10.3,10.3l-3.6-3.9c-0.9-1-2.5-1.1-3.5-0.2c-1,0.9-1.1,2.5-0.2,3.5   c0,0,0,0,0.1,0.1l5.4,5.9c0.5,0.5,1.1,0.8,1.8,0.8h0.1c0.7,0,1.3-0.3,1.8-0.7l12.2-12.2C168.9,117.9,168.9,116.3,168,115.3z"/>
	<path class="st7" d="M180.7,5.4c-23,0-41.7,18.7-41.7,41.7s18.7,41.7,41.7,41.7c23,0,41.7-18.7,41.7-41.7   C222.4,24.1,203.7,5.4,180.7,5.4z M180.7,83.8c-20.3,0-36.7-16.4-36.7-36.7s16.4-36.7,36.7-36.7c20.3,0,36.7,16.4,36.7,36.7   C217.4,67.3,201,83.8,180.7,83.8z"/>
	<path class="st7" d="M147.1,29.5c-0.5-0.7-1.3-1.1-2.1-1.1H85c-5.6,0-10.2,4.6-10.2,10.2S79.4,48.8,85,48.8h56.5   c1.4,0,2.5-1.1,2.5-2.4c0.1-5,1.2-9.9,3.3-14.4C147.6,31.1,147.6,30.2,147.1,29.5z M139.2,43.8H85c-2.9,0-5.2-2.3-5.2-5.2   s2.3-5.2,5.2-5.2h56.3C140.2,36.7,139.4,40.2,139.2,43.8L139.2,43.8z"/>
	<path class="st7" d="M200.2,79.7c-0.7-0.5-1.7-0.5-2.5-0.1c-5.2,2.8-11.1,4.2-17,4.2c-20.3,0-36.7-16.4-36.7-36.7   c0-0.1,0-0.3,0-0.4l0-0.4c0-1.4-1.1-2.5-2.5-2.5c0,0,0,0,0,0H85c-2.9,0-5.2-2.3-5.2-5.2c0-1.3,0.5-2.5,1.3-3.5   c0.9-1,0.8-2.6-0.2-3.5c-0.5-0.4-1.1-0.6-1.7-0.6H47.2c-7.5,0-13.6,6.1-13.6,13.6v197.8c0,7.5,6.1,13.6,13.6,13.6h140.6   c7.5,0,13.6-6.1,13.6-13.6V81.8C201.4,80.9,200.9,80.1,200.2,79.7z M196.4,242.4c0,4.8-3.9,8.6-8.6,8.6H47.2   c-4.8,0-8.6-3.9-8.6-8.6V44.6c0-4.8,3.9-8.6,8.6-8.6h28c-1.5,5.4,1.8,11,7.2,12.5c0.9,0.2,1.7,0.3,2.6,0.3h54   c0.9,23,20.3,40.9,43.3,40c4.8-0.2,9.6-1.2,14-3L196.4,242.4z"/>
	<path class="st7" d="M190.2,83.6c-0.6-0.5-1.3-0.7-2.1-0.5c-19.9,4.1-39.3-8.7-43.4-28.6c-0.5-2.4-0.7-4.9-0.7-7.3   c0-0.1,0-0.3,0-0.4l0-0.4c0-1.4-1.1-2.5-2.5-2.5c0,0,0,0,0,0H85c-1.5,0-2.9-0.6-3.9-1.7c-0.5-0.5-1.2-0.8-1.9-0.8H47.2   c-1.9,0-3.4,1.5-3.4,3.4v197.8c0,1.9,1.5,3.4,3.4,3.4h111.2c0.7,0,1.3-0.3,1.8-0.7l30.3-30.3c0.5-0.5,0.7-1.1,0.7-1.8V85.5   C191.1,84.7,190.8,84,190.2,83.6z M186.1,211.9l-28.8,28.8H48.8V46.2h29.5c1.9,1.6,4.3,2.6,6.7,2.6h54c0.9,23,20.4,40.9,43.4,40   c1.2-0.1,2.5-0.2,3.7-0.3L186.1,211.9z"/>
	<path class="st7" d="M145.6,57.8c-0.6-1.3-2.1-1.8-3.3-1.2c-0.5,0.2-1,0.3-1.6,0.3H94.8c-2.1,0-3.8-1.7-3.8-3.8v-6.9   c0-1.4-1.1-2.5-2.5-2.5S86,44.9,86,46.3v6.9c0,4.8,3.9,8.8,8.8,8.8h45.9c1.3,0,2.5-0.3,3.7-0.8C145.6,60.6,146.2,59.1,145.6,57.8   C145.6,57.8,145.6,57.8,145.6,57.8z"/>
	<path class="st7" d="M206.3,29.3c-3-3-7.8-3-10.8,0c0,0,0,0,0,0l-19,19l-5.4-5.9c-2.8-3.1-7.7-3.4-10.8-0.6   c-3.1,2.8-3.4,7.7-0.6,10.8c0,0,0.1,0.1,0.1,0.1l10.8,11.9c1.4,1.6,3.4,2.5,5.5,2.5h0.2c2,0,4-0.8,5.4-2.2l24.6-24.6   C209.3,37.2,209.3,32.3,206.3,29.3z M202.8,36.6l-24.6,24.6c-1,1-2.7,1-3.8,0c0,0-0.1-0.1-0.1-0.1l-10.8-11.9   c-1-1.1-0.9-2.8,0.2-3.8c0.5-0.4,1.1-0.7,1.8-0.7h0.1c0.7,0,1.4,0.3,1.8,0.9l7.2,7.9c0.5,0.5,1.1,0.8,1.8,0.8   c0.7,0,1.3-0.3,1.8-0.7L199,32.9l0,0c1.1-1,2.7-1,3.8,0C203.8,33.9,203.8,35.6,202.8,36.6z"/>
</g>
</svg>
