<?xml version="1.0"?>
<svg xmlns="http://www.w3.org/2000/svg" id="filled_outline" height="512px" viewBox="0 0 512 512" width="512px" data-name="filled outline" class=""><g><path d="m408 400h-112v-184h40l72 40z" fill="#ffceb6" data-original="#FFCEB6" class=""/><rect fill="#00a64f" height="320" rx="16" width="176" x="24" y="48" data-original="#00A64F" class=""/><path d="m24 96h16a32 32 0 0 0 32-32v-16h-32a16 16 0 0 0 -16 16z" fill="#c8dbf7" data-original="#C8DBF7"/><path d="m200 96h-16a32 32 0 0 1 -32-32v-16h32a16 16 0 0 1 16 16z" fill="#c8dbf7" data-original="#C8DBF7"/><path d="m24 320h16a32 32 0 0 1 32 32v16h-32a16 16 0 0 1 -16-16z" fill="#c8dbf7" data-original="#C8DBF7"/><rect fill="#00b55b" height="320" rx="16" width="176" x="72" y="96" data-original="#00B55B"/><path d="m72 144h16a32 32 0 0 0 32-32v-16h-32a16 16 0 0 0 -16 16z" fill="#d1e4ff" data-original="#D1E4FF"/><path d="m248 144h-16a32 32 0 0 1 -32-32v-16h32a16 16 0 0 1 16 16z" fill="#d1e4ff" data-original="#D1E4FF"/><path d="m72 368h16a32 32 0 0 1 32 32v16h-32a16 16 0 0 1 -16-16z" fill="#d1e4ff" data-original="#D1E4FF"/><path d="m376 288h144v80h-144z" fill="#548aff" transform="matrix(0 1 -1 0 776 -120)" data-original="#548AFF" class="active-path" style="fill:#FB5252" data-old_color="#548aff"/><path d="m296 328v120a16 16 0 0 1 -16 16h-144a16 16 0 0 1 -16-16v-288a16 16 0 0 1 16-16h144a16 16 0 0 1 16 16v120" fill="#02c26a" data-original="#02C26A" class=""/><g fill="#e0edff"><path d="m120 192h16a32 32 0 0 0 32-32v-16h-32a16 16 0 0 0 -16 16z" data-original="#E0EDFF" class=""/><circle cx="208" cy="304" r="48" data-original="#E0EDFF" class=""/><path d="m296 192h-16a32 32 0 0 1 -32-32v-16h32a16 16 0 0 1 16 16z" data-original="#E0EDFF" class=""/><path d="m120 416h16a32 32 0 0 1 32 32v16h-32a16 16 0 0 1 -16-16z" data-original="#E0EDFF" class=""/><path d="m296 416h-16a32 32 0 0 0 -32 32v16h32a16 16 0 0 0 16-16z" data-original="#E0EDFF" class=""/></g><path d="m367.99985 360h-24a48 48 0 0 1 -38.4-19.2l-9.6-12.8h-48a24 24 0 0 1 -24-24 24 24 0 0 1 24-24h120z" fill="#ffceb6" data-original="#FFCEB6" class=""/><path d="m40 376h24v24a24.02718 24.02718 0 0 0 24 24h24v24a24.02718 24.02718 0 0 0 24 24h144a24.02718 24.02718 0 0 0 24-24v-40h184a8.00008 8.00008 0 0 0 8-8v-144a8.00008 8.00008 0 0 0 -8-8h-77.92749l-70.18774-38.99316a8.00029 8.00029 0 0 0 -3.88477-1.00684h-32v-48a24.02718 24.02718 0 0 0 -24-24h-24v-24a24.02718 24.02718 0 0 0 -24-24h-24v-24a24.02718 24.02718 0 0 0 -24-24h-144a24.02718 24.02718 0 0 0 -24 24v288a24.02718 24.02718 0 0 0 24 24zm-8-24v-24h8a24.02718 24.02718 0 0 1 24 24v8h-24a8.00917 8.00917 0 0 1 -8-8zm48-288v-8h64v8a39.79015 39.79015 0 0 0 8.022 24h-64.022a24.02718 24.02718 0 0 0 -24 24v208.022a39.79015 39.79015 0 0 0 -24-8.022h-8v-208h8a40.04552 40.04552 0 0 0 40-40zm120.022 72h-64.022a24.02718 24.02718 0 0 0 -24 24v208.022a39.79015 39.79015 0 0 0 -24-8.022h-8v-208h8a40.04552 40.04552 0 0 0 40-40v-8h64v8a39.79015 39.79015 0 0 0 8.022 24zm79.978 64h8v72h-34.0498a56.27561 56.27561 0 0 0 -37.9502-23.41412v-40.58588h-16v40.58057a55.99285 55.99285 0 0 0 0 110.83886v40.58057h16v-40.59283a55.877 55.877 0 0 0 37.93115-23.40717h34.06885v72h-8a40.04552 40.04552 0 0 0 -40 40v8h-64v-8a40.04552 40.04552 0 0 0 -40-40h-8v-208h8a40.04552 40.04552 0 0 0 40-40v-8h64v8a40.04552 40.04552 0 0 0 40 40zm-44.80029 133.32a40.0176 40.0176 0 1 1 -.02539-58.62836 31.98681 31.98681 0 0 0 .02539 58.62836zm-107.19971-149.32v-24a8.00917 8.00917 0 0 1 8-8h24v8a24.02718 24.02718 0 0 1 -24 24zm-48-48v-24a8.00917 8.00917 0 0 1 8-8h24v8a24.02718 24.02718 0 0 1 -24 24zm0 264v-24h8a24.02718 24.02718 0 0 1 24 24v8h-24a8.00917 8.00917 0 0 1 -8-8zm48 48v-24h8a24.02718 24.02718 0 0 1 24 24v8h-24a8.00917 8.00917 0 0 1 -8-8zm152 8h-24v-8a24.02718 24.02718 0 0 1 24-24h8v24a8.00917 8.00917 0 0 1 -8 8zm136-192h64v128h-64zm-82.07324-40 66.07324 36.707v131.293h-96v-40.84265a56.30288 56.30288 0 0 0 40 16.84265h24v-16h-24a40.19106 40.19106 0 0 1 -32-16l-9.59961-12.7998a7.99952 7.99952 0 0 0 -6.40039-3.2002h-48a16 16 0 0 1 0-32h104v-16h-48v-48zm-45.92676-64v24h-8a24.02718 24.02718 0 0 1 -24-24v-8h24a8.00917 8.00917 0 0 1 8 8zm-48-48v24h-8a24.02718 24.02718 0 0 1 -24-24v-8h24a8.00917 8.00917 0 0 1 8 8zm-48-48v24h-8a24.02718 24.02718 0 0 1 -24-24v-8h24a8.00917 8.00917 0 0 1 8 8zm-152-8h24v8a24.02718 24.02718 0 0 1 -24 24h-8v-24a8.00917 8.00917 0 0 1 8-8z" data-original="#000000" class="" style="fill:#000000"/></g> </svg>
