<svg id="Layer_1_1_" enable-background="new 0 0 64 64" height="512" viewBox="0 0 64 64" width="512" xmlns="http://www.w3.org/2000/svg"><circle cx="39" cy="30" fill="#6389ba" r="22"/><path d="m45.133 8.873-2.951 2.233c-.777.588-1.408 1.348-1.844 2.219-.847 1.694-.892 3.677-.123 5.407l1.862 4.19c.597 1.343 1.642 2.437 2.957 3.094l5.966 2.984 9.706 4.576c.191-1.164.294-2.358.294-3.576 0-10.021-6.702-18.471-15.867-21.127z" fill="#aeca8d"/><path d="m28.877 40.939-3.016-1.508c-.559-.28-1.013-.733-1.292-1.292l-.878-1.755c-.432-.864-.404-1.887.076-2.726l2.58-4.515c.415-.726 1.123-1.236 1.942-1.4 1.869-.374 2.87-2.422 2.018-4.126-.857-1.714-2.147-3.175-3.741-4.238l-4.705-3.137c-.009.001-.015.002-.024.004-3.023 3.767-4.837 8.547-4.837 13.754 0 10.572 7.459 19.399 17.4 21.515.643.122 1.27.222 1.873.297l.498-3.981c.14-1.117-.382-2.213-1.336-2.809l-1.676-1.047-4.643-2.902c-.077-.049-.157-.093-.239-.134z" fill="#aeca8d"/><path d="m6 59h-3v2h7c0-2.209-1.791-2-4-2z" fill="#35291f"/><path d="m12 61h7c0-2.209-1.791-2-4-2h-3z" fill="#35291f"/><path d="m26 8h3c0-2.761-2.239-5-5-5h-3c0 2.761 2.239 5 5 5z" fill="#66883f"/><path d="m61 55.253-1.86-2.353c-1.712-2.166-4.857-2.534-7.023-.822l1.86 2.354c1.712 2.166 4.857 2.534 7.023.821z" fill="#66883f"/><path d="m37.878 54.371-2.927.656c-2.695.604-4.389 3.278-3.785 5.972l2.927-.656c2.694-.603 4.389-3.277 3.785-5.972z" fill="#66883f"/><path d="m7 59 2-18 3 18h4l-1.787-23.23c-.12-1.563-1.423-2.77-2.991-2.77h-5.222c-1.657 0-3 1.343-3 3v23z" fill="#45525d"/><path d="m41.885 42.104c0 .387.273.719.651.795l1.242.248c.358.072.72-.105.883-.432l.249-.498c.239-.478-.042-1.052-.566-1.157l-1.035-.207c-.266-.053-.54.03-.732.222l-.456.456c-.15.152-.236.358-.236.573z" fill="#aeca8d"/><path d="m53.977 53.431-1.335-1.689c-.177.107-.359.204-.525.336l1.86 2.354c1.712 2.166 4.857 2.534 7.023.822l-.525-.664c-2.126 1.285-4.917.841-6.498-1.159z" fill="#526e33"/><path d="m34.092 59.344-2.927.656c-.045-.203-.053-.403-.073-.605-.054.524-.049 1.062.073 1.605l2.927-.656c2.492-.558 4.104-2.889 3.858-5.368-.214 2.079-1.706 3.886-3.858 4.368z" fill="#526e33"/><path d="m26 7c-2.419 0-4.436-1.718-4.899-4h-.101c0 2.761 2.239 5 5 5h3c0-.343-.035-.677-.101-1z" fill="#526e33"/><ellipse cx="27.33" cy="24.804" fill="#bcd99b" rx="1.42" ry="2.178"/><ellipse cx="26.232" cy="20.902" fill="#bcd99b" rx=".83" ry=".67"/><ellipse cx="57" cy="25.666" fill="#bcd99b" rx="2.277" ry="2.063" transform="matrix(.915 -.403 .403 .915 -5.51 25.171)"/><ellipse cx="57.918" cy="29.741" fill="#bcd99b" rx=".723" ry=".643" transform="matrix(.915 -.403 .403 .915 -7.076 25.887)"/><path d="m21.878 28.673c-.259-.684-.921-1.137-1.645-1.24l-3.209-.458c-1.216-.174-2.201-1.078-2.477-2.275l-.199-.86c-.742-3.215-.348-7.84-7.348-7.84l-1.38.92c-1.023.682-1.675 1.796-2.136 3.126l-.896 16.014 11.885-.105v-4.955h5.849c1.137 0 2.009-1.13 1.556-2.327z" fill="#eedb74"/><path d="m4.484 21.046c.461-1.33 1.114-2.444 2.136-3.126l1.38-.92c2.21 0 3.68.462 4.684 1.194-.941-1.287-2.587-2.194-5.684-2.194l-1.38.92c-1.023.682-1.675 1.796-2.136 3.126l-.896 16.014 1.056-.009z" fill="#e3ce5f"/><path d="m16 5v-3l-1.715.572c-.847.282-1.745.377-2.632.279l-3.211-.357c-2.37-.264-4.442 1.591-4.442 3.975v1.531h9c1.657 0 3-1.343 3-3z" fill="#35291f"/><path d="m4 8v6c0 1.657 1.343 3 3 3h4c1.657 0 3-1.343 3-3v-6z" fill="#ffecdb"/><path d="m14.285 2.572c-.847.282-1.745.377-2.632.279l-3.211-.357c-2.37-.264-4.442 1.591-4.442 3.975v1.531h.051c.254-2.149 2.182-3.752 4.391-3.506l3.212.357c.887.099 1.785.003 2.632-.279l1.714-.572v-2z" fill="#4d3b2d"/><path d="m14.473 31-1.357-.21c-1.675-.259-3.004-1.546-3.319-3.211l-.547-2.9-.694 4.716c-.23 1.563.482 3.114 1.816 3.96l4.101 2.6z" fill="#e3ce5f"/><path d="m20.233 27.432-3.209-.458c-.368-.053-.711-.179-1.024-.353v4.379h4.322c1.136 0 2.009-1.13 1.555-2.327-.258-.684-.92-1.137-1.644-1.241z" fill="#ffecdb"/><ellipse cx="38.357" cy="10.643" fill="#6e94c4" rx="2.179" ry="1.411"/><circle cx="34.321" cy="11.071" fill="#6e94c4" r=".758"/><path d="m46.021 40.736v.001c0 1.015.717 1.889 1.712 2.088l3.266.653c.942.188 1.893-.277 2.322-1.136l.655-1.31c.628-1.256-.11-2.765-1.487-3.041l-2.721-.544c-.698-.14-1.42.079-1.924.582l-1.199 1.199c-.4.402-.624.943-.624 1.508z" fill="#a1ba85"/><path d="m47 40.671c0 .773.545 1.438 1.302 1.589l2.484.497c.716.143 1.44-.211 1.767-.864l.498-.996c.478-.955-.084-2.104-1.131-2.313l-2.07-.414c-.531-.106-1.08.06-1.463.443l-.912.912c-.304.304-.475.716-.475 1.146z" fill="#aeca8d"/><path d="m33.123 13.094-3.033.758c-.594.149-1.011.682-1.011 1.295v3.472c0 .506.286.968.738 1.194l4.675 2.338c1.02.51 2.168-.411 1.892-1.518l-1.642-6.568c-.179-.715-.904-1.15-1.619-.971z" fill="#a1ba85"/><path d="m33.03 14.243-2.272.568c-.446.111-.758.511-.758.97v2.601c0 .379.214.725.553.894l3.503 1.751c.764.382 1.625-.308 1.417-1.137l-1.23-4.921c-.134-.535-.677-.86-1.213-.726z" fill="#aeca8d"/><path d="m53 18c-.552 0-1-.448-1-1v-9.501c0-.552.448-1 1-1s1 .448 1 1v9.501c0 .552-.448 1-1 1z" fill="#6c4b1a"/><path d="m33 47c-.097 0-.196-.015-.294-.044-.528-.162-.825-.721-.663-1.25l1.521-4.96c.162-.528.724-.823 1.25-.663.528.162.825.721.663 1.25l-1.521 4.96c-.132.431-.528.707-.956.707z" fill="#6c4b1a"/><g fill="#66883f"><path d="m48 3h-3c0 2.761 2.239 5 5 5h3c0-2.761-2.239-5-5-5z"/><path d="m61 3h-3c-2.761 0-5 2.239-5 5h3c2.761 0 5-2.239 5-5z"/><path d="m29.661 36.04h-3c0 2.761 2.239 5 5 5h3c0-2.762-2.239-5-5-5z"/><path d="m42.661 36.04h-3c-2.761 0-5 2.239-5 5h3c2.761 0 5-2.239 5-5z"/></g><path d="m31.661 40.04c-2.419 0-4.436-1.718-4.899-4h-.101c0 2.761 2.239 5 5 5h3c0-.343-.035-.677-.101-1z" fill="#526e33"/><path d="m37.661 40.04h-2.899c-.066.323-.101.657-.101 1h3c2.761 0 5-2.239 5-5h-.101c-.463 2.282-2.48 4-4.899 4z" fill="#526e33"/><path d="m50 7c-2.419 0-4.436-1.718-4.899-4h-.101c0 2.761 2.239 5 5 5h3c0-.343-.035-.677-.101-1z" fill="#526e33"/><path d="m56 7h-2.899c-.066.323-.101.657-.101 1h3c2.761 0 5-2.239 5-5h-.101c-.463 2.282-2.48 4-4.899 4z" fill="#526e33"/></svg>