<svg id="Layer_1_1_" enable-background="new 0 0 64 64" height="512" viewBox="0 0 64 64" width="512" xmlns="http://www.w3.org/2000/svg"><path d="m60.224 56.36c-1.205-.498-2.241-1.428-2.555-2.684l-.432-1.727c-.156-.623-.156-1.274 0-1.897l1.226-4.903c.333-1.333-.057-2.743-1.029-3.714l-5.193-4.702.023 3.314c.009 1.347-1.294 2.314-2.581 1.914l-.962-.299c-.817-.254-1.704.043-2.219.756-.63.873-1.871 1.09-2.763.487-.713-.482-1.464-1.039-1.831-1.463-.674-.78-.943-1.875-.643-2.87.443-1.468-.357-3.026-1.772-3.616l-9.493-3.956 1.233 3.082c1.219 3.047 1.013 6.586-.813 9.608-.599.991-1.389 1.855-2.268 2.609l-3.152 2.701-1.297 1.297c-.42.42-1.061.524-1.592.258-.631-.316-.923-1.057-.675-1.718l.535-1.426c1.181-3.148-.02-6.692-2.871-8.474l-3.1-1.937c1.778 2.37 1.886 5.594.282 8.076-.77 1.191-1.072 2.624-.664 3.983.458 1.526 1.239 3.185 1.433 4.754.28 2.264-1.652 3.79-3.784 2.894-1.768-.743-1.05-1.905-1.421-3.315-.223-.847-.665-1.587-1.215-2.261-.576-.707-1.273-1.306-1.966-1.894-.401-.34-1.861-1.163-1.986-1.656 0 0 .565 2.23.565 2.23.238.938-.013 1.911-.604 2.678-1.015 1.318-1.503 2.656-1.409 4.063.128 1.909-1.465 3.949-3.291 4.523l-.046.015.089.91h60.017v-2.907c0-1.182-.683-2.281-1.776-2.733z" fill="#c24827"/><path d="m49 9c-.527 0-1.042.046-1.551.111-2.059-3.645-5.963-6.111-10.449-6.111-6.323 0-11.491 4.893-11.954 11.097-.341-.06-.689-.097-1.046-.097-3.314 0-6 2.686-6 6s2.686 6 6 6c1.924 0 3.633-.91 4.731-2.318 2.153 2.051 5.06 3.318 8.269 3.318.338 0 .67-.023 1-.054.184-.017.368-.034.551-.058 1.415 2.505 3.702 4.453 6.449 5.427 1.251.444 2.597.685 4 .685 6.627 0 12-5.373 12-12s-5.373-12-12-12z" fill="#66883f"/><path d="m11.478 37.942c-2.46-3.456-4.478 3.708-4.478 3.708s6.354-.232 4.736-3.286c-.072-.135-.153-.274-.258-.422z" fill="#35291f"/><path d="m9.832 17.127c3.168-3.127-5.628-5.36-5.628-5.36s2.214 8.731 5.628 5.36z" fill="#66883f"/><path d="m49 29c-1.403 0-2.749-.241-4-.685-2.748-.974-5.034-2.922-6.449-5.427-.182.024-.367.04-.551.058-.33.031-.662.054-1 .054-3.209 0-6.116-1.267-8.269-3.318-1.098 1.408-2.807 2.318-4.731 2.318-2.611 0-4.827-1.671-5.651-4-.222.626-.349 1.298-.349 2 0 3.314 2.686 6 6 6 1.924 0 3.633-.91 4.731-2.318 2.153 2.051 5.06 3.318 8.269 3.318.338 0 .67-.023 1-.054.184-.017.368-.034.551-.058 1.415 2.505 3.702 4.453 6.449 5.427 1.251.444 2.597.685 4 .685 6.627 0 12-5.373 12-12 0-.683-.07-1.348-.18-2-.954 5.673-5.876 10-11.82 10z" fill="#333c1a"/><path d="m56.282 57.64c-.628-.375-1.119-.9-1.303-1.547l-.348-1.226c-.126-.442-.126-.904 0-1.347l.988-3.479c.269-.946-.046-1.947-.83-2.636l-4.188-3.337.019 2.352c.008.956-1.044 1.642-2.081 1.358l-.776-.212c-.664-.182-1.386.034-1.787.534l-.002.003c-.503.627-1.483.788-2.207.358-.581-.345-1.198-.746-1.498-1.051-.543-.554-.761-1.331-.519-2.037.357-1.042-.288-2.148-1.429-2.566l-7.655-2.807.994 2.187c.983 2.162.817 4.674-.655 6.819-.483.703-1.12 1.316-1.829 1.851l-2.542 1.917-1.046.92c-.339.298-.856.372-1.284.183-.509-.224-.744-.75-.544-1.219l.431-1.012c.952-2.234-.016-4.749-2.316-6.014l-2.499-1.375c1.434 1.682 1.521 3.97.227 5.731-.621.846-.864 1.862-.536 2.826l1.124 3.297c.412 1.21-.671 2.427-2.136 2.333-1.074-.069-1.892-.922-1.906-1.869-.01-.652-.187-1.295-.519-1.879l-3.772-2.932.447 1.55c.197.685-.011 1.395-.497 1.956-.909 1.049-1.285 2.115-1.063 3.249.24 1.226-1.31 2.435-2.659 2.808l-.086.027.072.646h48.401v-2.063c0-.921-1.326-1.781-2.191-2.297z" fill="#e8562f"/><path d="m52.452 59.225c-.399-.238-.712-.573-.829-.985l-.222-.78c-.08-.281-.08-.576 0-.857l.629-2.214c.171-.602-.029-1.239-.528-1.678l-2.665-2.123.012 1.497c.005.608-.664 1.045-1.324.864l-.494-.135c-.423-.116-.882.022-1.137.34l-.001.002c-.32.399-.944.501-1.404.228-.37-.22-.763-.475-.953-.669-.346-.352-.484-.847-.33-1.296.227-.663-.183-1.367-.91-1.633l-4.872-1.786.633 1.392c.625 1.376.52 2.974-.417 4.339-.307.448-.713.838-1.164 1.178l-1.618 1.22-.666.586c-.215.19-.545.237-.817.117-.324-.143-.473-.477-.346-.776l.274-.644c.606-1.422-.01-3.022-1.474-3.827l-1.591-.875c.912 1.07.968 2.526.145 3.647-.395.538-.55 1.185-.341 1.799l.715 2.098c.262.77-.427 1.545-1.359 1.485-.683-.044-1.204-.586-1.213-1.189-.006-.415-.119-.824-.33-1.196l-2.4-1.866.284.986c.126.436-.007.888-.317 1.245-.579.667-.818 1.346-.677 2.068.153.78-.834 1.549-1.692 1.787l-.053.015.046.411h30.8v-1.313c0-.586-.843-1.133-1.394-1.462z" fill="#d64f2b"/><path d="m48.83 60.415c-.228-.136-.407-.327-.474-.563l-.127-.446c-.046-.161-.046-.329 0-.49l.359-1.265c.098-.344-.017-.708-.302-.959l-1.523-1.213.007.855c.003.348-.38.597-.757.494l-.282-.077c-.242-.066-.504.012-.65.194l-.001.001c-.183.228-.539.286-.802.13-.211-.125-.436-.271-.545-.382-.198-.201-.277-.484-.189-.741.13-.379-.105-.781-.52-.933l-2.782-1.02.361.795c.357.786.297 1.7-.238 2.479-.176.256-.407.479-.665.673l-.924.697-.38.335c-.123.108-.311.135-.467.067-.185-.081-.271-.273-.198-.443l.157-.368c.346-.812-.006-1.727-.842-2.187l-.909-.5c.521.612.553 1.444.083 2.084-.226.307-.314.677-.195 1.028l.409 1.199c.15.44-.244.883-.777.849-.391-.025-.688-.335-.693-.68-.004-.237-.068-.471-.189-.683l-1.372-1.066.162.564c.072.249-.004.507-.181.711-.331.381-.467.769-.387 1.182.087.446-.476.885-.967 1.021l-.03.008.026.235h17.6v-.75c0-.335-.482-.648-.796-.835z" fill="#c24827"/><g fill="#35291f"><path d="m21.571 32.206c2.343-3.537-5.068-2.849-5.068-2.849s2.497 5.847 4.767 3.241c.1-.116.201-.242.301-.392z"/><path d="m37 23.899v10.018l2 .833v-18.75c0-.552-.448-1-1-1-.552 0-1 .448-1 1v5.816c-1.161-.414-2-1.514-2-2.816v-8c0-.552-.448-1-1-1-.552 0-1 .448-1 1v8c0 2.414 1.721 4.434 4 4.899z"/><path d="m46 42.895v-12.895h1c2.761 0 5-2.239 5-5v-11c0-.552-.448-1-1-1-.552 0-1 .448-1 1v11c0 1.657-1.343 3-3 3h-1v-5c0-.552-.448-1-1-1-.552 0-1 .448-1 1v20.045c.65.31 1.415.243 2-.15z"/></g></svg>