<svg id="Layer_1_1_" enable-background="new 0 0 64 64" height="512" viewBox="0 0 64 64" width="512" xmlns="http://www.w3.org/2000/svg"><path d="m2 24h6v16h-6z"/><path d="m56 24h6v16h-6z"/><path d="m10 25h2v14h-2z"/><path d="m52 25h2v14h-2z"/><path d="m19.09 26.996c-.084.007-.17.005-.255-.01l-4.835-.806v11.82h4c.127 0 .253.024.372.071l14.688 5.876 8.805-2.402-8.909-7.289-.582.439c-.604.404-1.287.6-1.959.6-.887 0-1.757-.341-2.411-.995-.729-.729-1.089-1.735-.987-2.76.102-1.026.652-1.942 1.509-2.514l2.7-2.007-1.487-.991z"/><path d="m53.92 14.322-4.243-4.243c-.378-.378-1.037-.378-1.415 0l-2.127 2.127c-.936.936-2.395 1.146-3.548.511-1.408-.775-2.904-1.395-4.444-1.842-1.262-.366-2.143-1.546-2.143-2.869v-3.006c0-.551-.449-1-1-1h-6c-.551 0-1 .449-1 1v3.006c0 1.323-.881 2.503-2.144 2.869-1.541.447-3.036 1.067-4.445 1.842-1.153.635-2.611.424-3.548-.51l-2.127-2.128c-.377-.378-1.036-.378-1.415 0l-4.243 4.243c-.39.39-.39 1.024 0 1.415l2.127 2.127c.936.936 1.146 2.395.511 3.548-.285.518-.543 1.051-.785 1.588h1.069c.552 0 1 .448 1 1v.153l5.038.84 10.872-.989c.224-.019.455.037.645.164l2.375 1.584 2.091-1.554c.199-.148.446-.217.692-.193l10.235.986 4.052-.811v-.18c0-.552.448-1 1-1h1.067c-.242-.538-.501-1.072-.785-1.588-.634-1.153-.424-2.612.511-3.548l2.128-2.127c.389-.39.389-1.025-.001-1.415zm-6.761 7.967c-3.332-5.19-8.999-8.289-15.159-8.289s-11.827 3.099-15.159 8.289l-1.683-1.08c3.702-5.767 9.998-9.209 16.842-9.209s13.14 3.442 16.841 9.209z"/><path d="m44.228 40.895 5.772-1.649v-13.026l-3.804.761c-.097.019-.196.022-.292.015l-9.999-.963-6.228 4.628c-.399.268-.628.649-.67 1.076s.108.846.411 1.149c.479.479 1.237.553 1.8.178l3.798-2.863 1.203 1.598-1.618 1.219z"/><path d="m46.136 51.792 2.127 2.128c.378.377 1.037.378 1.415 0l4.243-4.243c.39-.39.39-1.024 0-1.415l-2.127-2.127c-.936-.936-1.146-2.395-.511-3.548.282-.513.531-1.051.773-1.588h-.916l-6.865 1.961v-.001c-.004.001-.007.004-.011.005l-11 3c-.087.024-.176.036-.264.036-.126 0-.252-.024-.372-.071l-14.82-5.929h-3.808c0 .552-.448 1-1 1h-1.067c.241.537.5 1.07.785 1.588.634 1.153.424 2.612-.511 3.548l-2.128 2.127c-.39.39-.39 1.024 0 1.415l4.243 4.243c.378.378 1.037.377 1.415 0l2.127-2.127c.937-.936 2.395-1.146 3.548-.511 1.408.775 2.904 1.395 4.444 1.842 1.263.366 2.144 1.546 2.144 2.869v3.006c0 .551.449 1 1 1h6c.551 0 1-.449 1-1v-3.006c0-1.323.881-2.503 2.144-2.869 1.541-.447 3.036-1.067 4.445-1.842 1.152-.636 2.611-.426 3.547.509zm-14.136.208c-6.212 0-11.967-2.815-15.79-7.723l1.578-1.229c3.441 4.418 8.621 6.952 14.212 6.952 5.432 0 10.519-2.417 13.957-6.632l1.55 1.264c-3.819 4.682-9.471 7.368-15.507 7.368z"/></svg>