<?xml version="1.0"?>
<svg xmlns="http://www.w3.org/2000/svg" id="Capa_1" enable-background="new 0 0 497 497" height="512px" viewBox="0 0 497 497" width="512px" class=""><g><g><path d="m347.9 146.665h115.968c18.299 0 33.133 14.834 33.133 33.133v198.802c0 18.299-14.834 33.133-33.133 33.133h-41.417c-4.575 0-8.283 3.708-8.283 8.283v37.986c0 7.38-8.922 11.075-14.141 5.857l-49.7-49.701c-1.553-1.553-3.66-2.426-5.857-2.426h-162.237c-18.298 0-33.132-14.834-33.132-33.133v-86.958z" fill="#89dd8e" data-original="#89DD8E" class="" style="fill:#89DD8E"/><path d="m314.767 30.698h-281.634c-18.299 0-33.133 14.834-33.133 33.133v198.802c0 18.298 14.834 33.132 33.132 33.132h41.417c4.575 0 8.283 3.709 8.283 8.283v37.986c0 7.38 8.922 11.076 14.141 5.857l49.7-49.701c1.553-1.553 3.66-2.426 5.857-2.426h162.237c18.298 0 33.132-14.834 33.132-33.132v-198.801c.001-18.299-14.833-33.133-33.132-33.133z" fill="#f9f5f3" data-original="#F9F5F3" class="active-path" style="fill:#FB5252" data-old_color="#f9f5f3"/><ellipse cx="248.5" cy="345.466" fill="#f9f5f3" rx="16.567" ry="16.567" transform="matrix(.16 -.987 .987 .16 -132.31 535.42)" data-original="#F9F5F3" class="active-path" style="fill:#FB5252" data-old_color="#f9f5f3"/><g><g><ellipse cx="173.95" cy="246.065" fill="#868eaf" rx="16.567" ry="16.567" transform="matrix(.707 -.707 .707 .707 -123.046 195.072)" data-original="#868EAF" class="" style="fill:#FFFFFF" data-old_color="#868eaf"/><g><path d="m173.95 196.366c-9.15 0-16.567-7.417-16.567-16.567v-16.567c0-15.174 8.971-28.663 22.853-34.364 6.619-2.718 10.733-9.367 10.238-16.546-.554-8.035-7.28-14.762-15.314-15.316-4.66-.315-9.117 1.244-12.509 4.41-3.397 3.17-5.268 7.473-5.268 12.116 0 9.15-7.417 16.567-16.567 16.567s-16.567-7.417-16.567-16.567c0-13.725 5.757-26.969 15.793-36.338 10.032-9.363 23.654-14.194 37.398-13.242 24.579 1.696 44.393 21.51 46.087 46.09 1.48 21.442-10.86 41.326-30.706 49.476-1.379.566-2.307 2.059-2.307 3.714v16.567c.002 9.15-7.414 16.567-16.564 16.567z" fill="#868eaf" data-original="#868EAF" class="" style="fill:#FFFFFF" data-old_color="#868eaf"/></g></g></g><ellipse cx="397.601" cy="345.466" fill="#f9f5f3" rx="16.567" ry="16.567" transform="matrix(.23 -.973 .973 .23 -29.973 653.059)" data-original="#F9F5F3" class="active-path" style="fill:#FB5252" data-old_color="#f9f5f3"/><ellipse cx="323.05" cy="345.466" fill="#f9f5f3" rx="16.567" ry="16.567" transform="matrix(.16 -.987 .987 .16 -69.702 609.007)" data-original="#F9F5F3" class="active-path" style="fill:#FB5252" data-old_color="#f9f5f3"/><g fill="#f9eae0"><path d="m122.859 298.192-40.026 40.026v3.817c0 7.38 8.922 11.076 14.141 5.857l49.7-49.701c1.554-1.553 3.66-2.426 5.857-2.426h-23.815c-2.197 0-4.304.873-5.857 2.427z" data-original="#F9EAE0" class="" style="fill:#FFFFFF" data-old_color="#F9EAE0"/><path d="m314.767 30.698h-23.815c18.299 0 33.133 14.834 33.133 33.133v198.802c0 18.299-14.834 33.132-33.132 33.132h23.815c18.299 0 33.132-14.834 33.132-33.132v-198.802c0-18.299-14.834-33.133-33.133-33.133z" data-original="#F9EAE0" class="" style="fill:#FFFFFF" data-old_color="#F9EAE0"/></g><g><g><g><path d="m390.353 420.016v34.169l9.674 9.674c5.218 5.218 14.141 1.522 14.141-5.857v-37.986c0-4.575 3.709-8.283 8.283-8.283h-23.815c-4.575 0-8.283 3.708-8.283 8.283z" fill="#79d191" data-original="#79D191" class="" style="fill:#00AF80" data-old_color="#79d191"/></g><g><path d="m463.867 146.665h-23.815c18.299 0 33.133 14.834 33.133 33.133v198.802c0 18.299-14.834 33.132-33.132 33.132h23.815c18.298 0 33.132-14.834 33.132-33.132v-198.802c0-18.299-14.834-33.133-33.133-33.133z" fill="#79d191" data-original="#79D191" class="" style="fill:#00AF80" data-old_color="#79d191"/></g></g></g></g></g> </svg>
