<svg enable-background="new 0 0 256 256" height="512" viewBox="0 0 256 256" width="512" xmlns="http://www.w3.org/2000/svg"><path d="m178.035 250.712-1.831-43.873c-.231-4.151-3.135-7.67-7.167-8.685l-18.698-4.706-11.248-5.546-5.168 10.662c-.384.793-1.188 1.296-2.069 1.296-.23 0-8.123 0-8.073 0-.905 0-1.725-.53-2.096-1.355l-4.777-10.603-11.248 5.546-18.698 4.706c-4.032 1.015-6.936 4.534-7.167 8.685l-1.831 43.873c-.084 1.514 1.121 2.788 2.637 2.788h94.797c1.517 0 2.722-1.274 2.637-2.788z" fill="#1387ce"/><path d="m251.665 206.839c-.231-4.151-3.135-7.67-7.167-8.685l-18.698-4.706-11.248-5.546-5.168 10.662c-.384.793-1.188 1.296-2.069 1.296-.229 0-8.123 0-8.073 0-.904 0-1.725-.53-2.097-1.355l-4.777-10.603-11.248 5.546-15.391 3.874 3.307.833c4.032 1.015 6.936 4.534 7.167 8.685l1.831 43.873c.084 1.514-1.121 2.788-2.637 2.788h75.46c1.516 0 2.721-1.274 2.637-2.788z" fill="#1387ce"/><path d="m77.965 250.712 1.831-43.873c.231-4.151 3.135-7.67 7.167-8.685l3.307-.833-15.391-3.874-11.248-5.546-5.168 10.662c-.384.793-1.188 1.296-2.069 1.296-.23 0-8.123 0-8.073 0-.905 0-1.725-.53-2.096-1.355l-4.777-10.603-11.248 5.546-18.698 4.706c-4.032 1.015-6.936 4.534-7.167 8.685l-1.831 43.873c-.084 1.514 1.121 2.788 2.637 2.788h75.46c-1.516.001-2.721-1.273-2.636-2.787z" fill="#1387ce"/><path d="m26.569 139.117c.526 0 1.041.044 1.545.122v-1.141c0-.005 0-.011 0-.016.001-.81.761-1.407 1.554-1.241 4.362.913 17.334 2.473 26.128-8.585.482-.606 1.374-.663 1.927-.121 2.025 1.985 7.295 5.949 17.297 6.242.683.02 1.229.583 1.243 1.266.002.125.004.251.004.377v3.22c.504-.078 1.019-.122 1.545-.122 2.71 0 5.164 1.077 6.972 2.821v-18.08c0-7.564-6.189-13.753-13.753-13.753-2.566 0-4.964.725-7.025 1.961-2.408-4.018-6.794-6.731-11.794-6.731h-7.062c-13.668 0-24.851 11.183-24.851 24.851v11.135c1.718-1.377 3.896-2.205 6.27-2.205z" fill="#843418"/><path d="m177.489 139.117c.526 0 1.041.044 1.545.122v-1.141c0-.005 0-.011 0-.016.001-.81.761-1.407 1.554-1.241 4.362.913 17.334 2.473 26.128-8.585.482-.606 1.374-.663 1.927-.121 2.025 1.985 7.295 5.949 17.297 6.242.683.02 1.229.583 1.243 1.266.003.125.004.251.004.377v3.22c.504-.078 1.019-.122 1.545-.122 2.71 0 5.164 1.077 6.972 2.821v-18.08c0-7.564-6.189-13.753-13.753-13.753-2.566 0-4.964.725-7.025 1.961-2.408-4.018-6.794-6.731-11.794-6.731h-7.062c-13.668 0-24.851 11.183-24.851 24.851v11.135c1.718-1.377 3.896-2.205 6.27-2.205z" fill="#843418"/><path d="m102.029 139.117c.526 0 1.041.044 1.545.122v-1.141c0-.005 0-.011 0-.016.001-.81.761-1.407 1.554-1.241 4.362.913 17.334 2.473 26.128-8.585.482-.606 1.374-.663 1.927-.121 2.025 1.985 7.295 5.949 17.297 6.242.683.02 1.229.583 1.243 1.266.002.125.004.251.004.377v3.22c.504-.078 1.019-.122 1.545-.122 2.71 0 5.164 1.077 6.972 2.821v-18.08c0-7.564-6.189-13.753-13.753-13.753-2.566 0-4.964.725-7.025 1.961-2.408-4.018-6.794-6.731-11.794-6.731h-7.062c-13.668 0-24.851 11.183-24.851 24.851v11.135c1.718-1.377 3.896-2.205 6.27-2.205z" fill="#843418"/><g fill="#f9c1a8"><path d="m77.811 139.117c-.526 0-1.041.044-1.545.123v1.632 16.594c0 .543-.025 1.08-.061 1.615.524.084 1.058.14 1.606.14 5.552 0 10.052-4.5 10.052-10.052s-4.501-10.052-10.052-10.052z"/><path d="m28.113 157.467v-16.594-1.632c-.504-.078-1.019-.123-1.545-.123-5.552 0-10.052 4.5-10.052 10.052s4.5 10.052 10.052 10.052c.548 0 1.082-.056 1.606-.14-.036-.535-.061-1.072-.061-1.615z"/><path d="m55.795 128.256c-8.794 11.059-21.766 9.498-26.128 8.585-.793-.166-1.553.432-1.554 1.241v.016 19.367c0 13.242 10.834 24.076 24.076 24.076 13.242 0 24.076-10.834 24.076-24.076v-21.445c0-.126-.001-.251-.004-.377-.014-.683-.56-1.246-1.243-1.266-10.002-.293-15.272-4.257-17.297-6.242-.552-.542-1.444-.484-1.926.121z"/><path d="m52.19 181.543c-3.855 0-7.503-.923-10.742-2.552v8.911l4.777 10.603c.372.825 1.192 1.355 2.096 1.355h8.073c.881 0 1.685-.504 2.069-1.296l5.168-10.662v-9.271c-3.408 1.855-7.307 2.912-11.441 2.912z"/><path d="m228.731 139.117c-.526 0-1.041.044-1.545.123v1.632 16.594c0 .543-.025 1.08-.061 1.615.524.084 1.058.14 1.606.14 5.552 0 10.052-4.5 10.052-10.052s-4.5-10.052-10.052-10.052z"/><path d="m179.034 157.467v-16.594-1.632c-.504-.078-1.019-.123-1.545-.123-5.552 0-10.052 4.5-10.052 10.052s4.5 10.052 10.052 10.052c.548 0 1.082-.056 1.606-.14-.036-.535-.061-1.072-.061-1.615z"/><path d="m206.716 128.256c-8.794 11.059-21.766 9.498-26.128 8.585-.793-.166-1.553.432-1.554 1.241v.016 19.367c0 13.242 10.834 24.076 24.076 24.076 13.242 0 24.076-10.834 24.076-24.076v-21.445c0-.126-.001-.251-.004-.377-.014-.683-.56-1.246-1.243-1.266-10.002-.293-15.272-4.257-17.297-6.242-.552-.542-1.444-.484-1.926.121z"/><path d="m203.11 181.543c-3.855 0-7.503-.923-10.742-2.552v8.911l4.777 10.603c.372.825 1.192 1.355 2.096 1.355h8.073c.881 0 1.685-.504 2.069-1.296l5.168-10.662v-9.271c-3.407 1.855-7.307 2.912-11.441 2.912z"/><path d="m153.271 139.117c-.526 0-1.041.044-1.545.123v1.632 16.594c0 .543-.025 1.08-.061 1.615.524.084 1.058.14 1.606.14 5.552 0 10.052-4.5 10.052-10.052s-4.5-10.052-10.052-10.052z"/><path d="m103.574 157.467v-16.594-1.632c-.504-.078-1.019-.123-1.545-.123-5.552 0-10.052 4.5-10.052 10.052s4.5 10.052 10.052 10.052c.548 0 1.082-.056 1.606-.14-.036-.535-.061-1.072-.061-1.615z"/><path d="m131.255 128.256c-8.794 11.059-21.766 9.498-26.128 8.585-.793-.166-1.553.432-1.554 1.241v.016 19.367c0 13.242 10.834 24.076 24.076 24.076 13.242 0 24.076-10.834 24.076-24.076v-21.445c0-.126-.001-.251-.004-.377-.014-.683-.56-1.246-1.243-1.266-10.002-.293-15.272-4.257-17.297-6.242-.551-.542-1.444-.484-1.926.121z"/><path d="m127.65 181.543c-3.855 0-7.503-.923-10.742-2.552v8.911l4.777 10.603c.372.825 1.192 1.355 2.096 1.355h8.073c.881 0 1.685-.504 2.069-1.296l5.168-10.662v-9.271c-3.408 1.855-7.307 2.912-11.441 2.912z"/></g><path d="m219.988 2.5h-183.975c-6.653 0-12.096 5.443-12.096 12.096v38.507c0 6.653 5.443 12.096 12.096 12.096h8.263c2.16 0 3.911 1.751 3.911 3.911v11.159c0 2.48 3.024 3.694 4.738 1.901l15.078-15.764c.738-.771 1.759-1.208 2.826-1.208h44.411c1.035 0 1.997.533 2.546 1.41l9.426 15.063c1.129 1.804 3.756 1.804 4.885 0l9.426-15.063c.549-.877 1.511-1.41 2.546-1.41h41.102c1.067 0 2.088.436 2.826 1.208l15.078 15.764c1.714 1.792 4.738.579 4.738-1.901v-11.159c0-2.16 1.751-3.911 3.911-3.911h8.263c6.653 0 12.096-5.443 12.096-12.096v-38.507c.001-6.653-5.442-12.096-12.095-12.096z" fill="#45bdf0"/><path d="m66.214 31.855c.833-.812.373-2.226-.778-2.394l-6.303-.916c-.457-.066-.852-.354-1.057-.768l-2.819-5.711c-.515-1.043-2.002-1.043-2.517 0l-2.819 5.711c-.204.414-.6.701-1.057.768l-6.303.916c-1.151.167-1.611 1.582-.778 2.394l4.561 4.445c.331.322.482.787.404 1.242l-1.077 6.277c-.197 1.146 1.007 2.021 2.036 1.479l5.637-2.964c.409-.215.897-.215 1.306 0l5.637 2.964c1.029.541 2.233-.333 2.036-1.479l-1.077-6.277c-.078-.455.073-.92.404-1.242z" fill="#facb35"/><path d="m103.214 31.855c.833-.812.373-2.226-.778-2.394l-6.303-.916c-.457-.066-.852-.354-1.057-.768l-2.819-5.711c-.515-1.043-2.002-1.043-2.517 0l-2.819 5.711c-.204.414-.6.701-1.057.768l-6.303.916c-1.151.167-1.611 1.582-.778 2.394l4.561 4.445c.331.322.482.787.404 1.242l-1.077 6.277c-.197 1.146 1.007 2.021 2.036 1.479l5.637-2.964c.409-.215.897-.215 1.306 0l5.637 2.964c1.029.541 2.233-.333 2.036-1.479l-1.077-6.277c-.078-.455.073-.92.404-1.242z" fill="#facb35"/><path d="m140.214 31.855c.833-.812.373-2.226-.778-2.394l-6.303-.916c-.457-.066-.852-.354-1.057-.768l-2.819-5.711c-.515-1.043-2.002-1.043-2.517 0l-2.819 5.711c-.204.414-.6.701-1.057.768l-6.303.916c-1.151.167-1.611 1.582-.778 2.394l4.561 4.445c.331.322.482.787.404 1.242l-1.077 6.277c-.197 1.146 1.007 2.021 2.036 1.479l5.637-2.964c.409-.215.897-.215 1.306 0l5.637 2.964c1.029.541 2.233-.333 2.036-1.479l-1.077-6.277c-.078-.455.073-.92.404-1.242z" fill="#facb35"/><path d="m177.214 31.855c.833-.812.373-2.226-.778-2.394l-6.303-.916c-.457-.066-.852-.354-1.057-.768l-2.819-5.711c-.515-1.043-2.002-1.043-2.517 0l-2.819 5.711c-.204.414-.6.701-1.057.768l-6.303.916c-1.151.167-1.611 1.582-.778 2.394l4.561 4.445c.331.322.482.787.404 1.242l-1.077 6.277c-.197 1.146 1.007 2.021 2.036 1.479l5.637-2.964c.409-.215.897-.215 1.306 0l5.637 2.964c1.029.541 2.233-.333 2.036-1.479l-1.077-6.277c-.078-.455.073-.92.404-1.242z" fill="#facb35"/><path d="m214.214 31.855c.833-.812.373-2.226-.778-2.394l-6.303-.916c-.457-.066-.852-.354-1.057-.768l-2.819-5.711c-.515-1.043-2.002-1.043-2.517 0l-2.819 5.711c-.204.414-.6.701-1.057.768l-6.303.916c-1.151.167-1.611 1.582-.778 2.394l4.561 4.445c.331.322.482.787.404 1.242l-1.077 6.277c-.197 1.146 1.007 2.021 2.036 1.479l5.637-2.964c.409-.215.897-.215 1.306 0l5.637 2.964c1.029.541 2.233-.333 2.036-1.479l-1.077-6.277c-.078-.455.073-.92.404-1.242z" fill="#facb35"/><path d="m77.811 161.721c-.629 0-1.283-.056-2.002-.171-1.275-.205-2.185-1.348-2.098-2.637.032-.479.055-.96.055-1.446v-18.227c0-1.233.898-2.282 2.117-2.471 7.81-1.208 14.479 4.851 14.479 12.4 0 6.921-5.631 12.552-12.551 12.552zm.955-20.043v14.983c3.715-.471 6.597-3.651 6.597-7.492s-2.883-7.02-6.597-7.491z"/><path d="m26.568 161.721c-6.921 0-12.552-5.631-12.552-12.552 0-7.55 6.673-13.609 14.479-12.4 1.219.189 2.117 1.238 2.117 2.471v18.227c0 .488.023.97.055 1.451.085 1.288-.824 2.428-2.098 2.632-.717.115-1.372.171-2.001.171zm-.955-20.043c-3.715.471-6.597 3.651-6.597 7.492s2.882 7.021 6.597 7.492z"/><path d="m52.189 184.042c-14.654 0-26.576-11.922-26.576-26.576v-19.366c.001-1.155.51-2.219 1.395-2.937.893-.724 2.049-1.003 3.172-.768 4.521.944 15.878 2.09 23.658-7.695.67-.842 1.669-1.364 2.74-1.43 1.08-.065 2.127.328 2.894 1.08 1.604 1.571 6.336 5.256 15.62 5.528 2.018.059 3.629 1.691 3.669 3.714.004.137.005.282.005.427v21.447c0 14.655-11.922 26.576-26.577 26.576zm-21.576-44.488v17.912c0 11.897 9.679 21.576 21.576 21.576s21.576-9.679 21.576-21.576v-20.641c-8.762-.506-14.054-3.665-16.833-6.028-8.81 10.123-21.001 9.591-26.319 8.757zm27.139-9.742c.001.002-.001.003-.003.003zm-1.957-1.556h.01z"/><path d="m84.783 144.438c-.636 0-1.261-.242-1.736-.701-1.418-1.367-3.277-2.12-5.236-2.12-.378 0-.759.03-1.164.093-.719.112-1.454-.098-2.009-.573-.554-.475-.872-1.168-.872-1.897v-2.415c-8.762-.506-14.054-3.665-16.833-6.028-8.824 10.135-21.036 9.588-26.339 8.754-.077.612-.379 1.179-.853 1.586-.555.475-1.289.685-2.009.573-.405-.062-.786-.093-1.164-.093-1.728 0-3.355.573-4.71 1.656-.75.6-1.778.718-2.645.301s-1.417-1.292-1.417-2.253v-11.135c0-15.082 12.27-27.351 27.352-27.351h7.062c4.882 0 9.525 2.264 12.595 6.03 1.974-.829 4.09-1.26 6.225-1.26 8.962 0 16.253 7.291 16.253 16.253v18.08c0 1.003-.6 1.909-1.522 2.301-.317.134-.649.199-.978.199zm-6.017-7.784c1.214.091 2.396.357 3.517.786v-13.582c0-6.205-5.048-11.253-11.253-11.253-2.004 0-3.988.555-5.74 1.605-.568.341-1.25.442-1.893.281-.644-.161-1.196-.571-1.537-1.14-2.038-3.402-5.735-5.516-9.649-5.516h-7.062c-12.324 0-22.352 10.027-22.352 22.351v7.017c1.005-.318 2.05-.51 3.107-.567.237-.568.612-1.074 1.104-1.473.892-.724 2.048-1.003 3.171-.768 4.521.944 15.878 2.09 23.658-7.695.67-.842 1.669-1.364 2.74-1.43 1.08-.065 2.127.328 2.894 1.08 1.604 1.571 6.336 5.256 15.62 5.528 2.018.059 3.629 1.691 3.669 3.714.004.137.005.282.005.427v.635z"/><path d="m52.54 212.95c-1.408 0-2.5-1.14-2.5-2.5 0-1.251.935-2.25 2.01-2.45 1.475-.292 2.99.821 2.99 2.45 0 1.422-1.151 2.5-2.5 2.5z"/><path d="m52.54 223.77c-1.42 0-2.5-1.165-2.5-2.5 0-1.257.929-2.249 2.01-2.45 1.571-.311 2.99.907 2.99 2.45 0 1.375-1.106 2.5-2.5 2.5z"/><path d="m52.54 234.59c-1.431 0-2.5-1.175-2.5-2.5 0-1.249.904-2.241 2.01-2.45 1.464-.307 2.99.798 2.99 2.45 0 1.435-1.178 2.5-2.5 2.5z"/><path d="m56.395 202.36h-8.073c-1.886 0-3.604-1.11-4.377-2.829l-4.775-10.603c-.146-.323-.221-.673-.221-1.027v-8.911c0-.868.449-1.673 1.188-2.128.737-.456 1.659-.495 2.435-.105 3.016 1.516 6.252 2.285 9.618 2.285 3.569 0 7.113-.902 10.247-2.607.774-.421 1.714-.404 2.473.047.758.45 1.223 1.267 1.223 2.149v9.271c0 .378-.086.75-.25 1.09l-5.168 10.662c-.8 1.644-2.495 2.706-4.32 2.706zm-7.944-5h7.818l4.862-10.032v-4.845c-5.519 1.981-11.687 2.06-17.184.244v4.638z"/><path d="m42.748 165.469c-.773-1.144-.473-2.698.671-3.471 1.144-.772 2.696-.474 3.472.671 2.705 4.003 8.594 4.003 11.298 0 .772-1.144 2.328-1.445 3.471-.672 1.145.773 1.445 2.327.672 3.471-4.678 6.926-14.891 6.945-19.584.001z"/><path d="m43.359 151.67c-1.312 0-2.5-1.061-2.5-2.5 0-1.604 1.506-2.775 2.99-2.45 1.09.206 2.01 1.191 2.01 2.45 0 1.324-1.068 2.5-2.5 2.5z"/><path d="m61.72 151.67c-1.353 0-2.5-1.088-2.5-2.5 0-.706.264-1.262.73-1.77 1.512-1.512 4.27-.486 4.27 1.77 0 1.39-1.133 2.5-2.5 2.5z"/><path d="m21.646 256c-1.381 0-2.5-1.119-2.5-2.5v-27.548c0-1.381 1.119-2.5 2.5-2.5s2.5 1.119 2.5 2.5v27.548c0 1.381-1.12 2.5-2.5 2.5z"/><path d="m228.731 161.721c-.629 0-1.283-.056-2.002-.171-1.275-.205-2.185-1.348-2.098-2.637.032-.479.055-.96.055-1.446v-18.227c0-1.233.898-2.282 2.117-2.471 7.809-1.208 14.479 4.851 14.479 12.4.001 6.921-5.63 12.552-12.551 12.552zm.956-20.043v14.983c3.715-.471 6.597-3.651 6.597-7.492s-2.883-7.02-6.597-7.491z"/><path d="m177.489 161.721c-6.921 0-12.552-5.631-12.552-12.552 0-7.55 6.672-13.609 14.479-12.4 1.219.189 2.117 1.238 2.117 2.471v18.227c0 .486.022.967.055 1.446.087 1.29-.822 2.433-2.099 2.637-.718.115-1.373.171-2 .171zm-.955-20.043c-3.715.471-6.597 3.651-6.597 7.492s2.882 7.021 6.597 7.492z"/><path d="m203.11 184.042c-14.654 0-26.576-11.922-26.576-26.576v-19.366c.001-1.155.51-2.219 1.395-2.937.893-.724 2.049-1.003 3.172-.768 4.522.946 15.879 2.09 23.658-7.695.67-.842 1.669-1.364 2.74-1.43 1.078-.065 2.126.328 2.894 1.08 1.604 1.571 6.336 5.256 15.62 5.528 2.018.059 3.629 1.691 3.669 3.714l.005.427v21.447c0 14.655-11.922 26.576-26.577 26.576zm-21.576-44.488v17.912c0 11.897 9.679 21.576 21.576 21.576s21.576-9.679 21.576-21.576v-20.641c-8.762-.506-14.054-3.665-16.833-6.028-8.813 10.125-21.004 9.591-26.319 8.757zm27.139-9.742c0 .002-.001.003-.003.003.001-.001.002-.002.003-.003zm-1.957-1.556h.01z"/><path d="m235.704 144.438c-.636 0-1.261-.242-1.736-.701-1.418-1.367-3.277-2.12-5.236-2.12-.378 0-.759.03-1.164.093-.719.112-1.454-.098-2.009-.573-.554-.475-.872-1.168-.872-1.897v-2.415c-8.762-.506-14.054-3.665-16.833-6.028-8.822 10.134-21.032 9.589-26.339 8.754-.077.612-.379 1.179-.853 1.586-.555.475-1.289.685-2.009.573-.405-.062-.786-.093-1.164-.093-1.728 0-3.355.573-4.71 1.656-.75.6-1.778.718-2.645.301s-1.417-1.292-1.417-2.253v-11.135c0-15.082 12.27-27.351 27.352-27.351h7.062c4.882 0 9.525 2.264 12.595 6.03 1.974-.829 4.09-1.26 6.225-1.26 8.962 0 16.253 7.291 16.253 16.253v18.08c0 1.003-.6 1.909-1.522 2.301-.317.134-.649.199-.978.199zm-6.017-7.784c1.214.091 2.396.357 3.517.786v-13.582c0-6.205-5.048-11.253-11.253-11.253-2.004 0-3.988.555-5.74 1.605-.569.341-1.251.442-1.893.281-.644-.161-1.196-.571-1.537-1.14-2.038-3.402-5.735-5.516-9.649-5.516h-7.062c-12.324 0-22.352 10.027-22.352 22.351v7.017c1.005-.318 2.05-.51 3.107-.567.237-.568.612-1.074 1.104-1.473.892-.724 2.048-1.003 3.171-.768 4.522.946 15.879 2.09 23.658-7.695.67-.842 1.669-1.364 2.74-1.43 1.078-.065 2.126.328 2.894 1.08 1.604 1.571 6.336 5.256 15.62 5.528 2.018.059 3.629 1.691 3.669 3.714z"/><path d="m201.01 210.94c-.165-.872.111-1.679.68-2.25.931-.93 2.61-.94 3.54 0 .983.983.963 2.571 0 3.53-1.403 1.404-3.849.677-4.22-1.28z"/><path d="m201.689 223.04c-1.016-1.116-.941-2.511 0-3.54.931-.93 2.601-.93 3.54 0 .513.557.73 1.155.73 1.77.001 2.008-2.438 3.445-4.27 1.77z"/><path d="m203.46 234.59c-1.352 0-2.5-1.099-2.5-2.5 0-.706.256-1.25.729-1.77 1.473-1.472 4.271-.534 4.271 1.77 0 1.371-1.117 2.5-2.5 2.5z"/><path d="m207.315 202.36h-8.073c-1.886 0-3.604-1.11-4.377-2.829l-4.776-10.603c-.146-.323-.221-.673-.221-1.027v-8.911c0-.867.449-1.673 1.188-2.128.74-.456 1.66-.495 2.436-.105 3.017 1.516 6.253 2.285 9.619 2.285 3.57 0 7.113-.901 10.246-2.607.775-.421 1.714-.404 2.473.046.758.451 1.223 1.268 1.223 2.149v9.271c0 .378-.086.75-.25 1.09l-5.168 10.662c-.797 1.644-2.492 2.707-4.32 2.707zm-7.943-5h7.817l4.862-10.032v-4.845c-5.52 1.98-11.687 2.06-17.184.243v4.638z"/><path d="m203.46 170.673c-3.93 0-7.59-1.946-9.791-5.205-.773-1.144-.473-2.698.672-3.471 1.144-.773 2.698-.472 3.471.672 1.271 1.881 3.382 3.004 5.648 3.004s4.378-1.123 5.649-3.004c.775-1.144 2.328-1.443 3.472-.671 1.144.773 1.444 2.327.671 3.471-2.202 3.259-5.863 5.204-9.792 5.204z"/><path d="m194.28 151.67c-1.312 0-2.5-1.06-2.5-2.5 0-1.606 1.505-2.775 2.989-2.45 1.097.207 2.011 1.194 2.011 2.45 0 1.355-1.122 2.5-2.5 2.5z"/><path d="m212.64 151.67c-1.383 0-2.5-1.128-2.5-2.5 0-1.62 1.5-2.763 2.99-2.45 1.147.217 2.01 1.252 2.01 2.45 0 1.356-1.095 2.5-2.5 2.5z"/><path d="m234.354 256c-1.381 0-2.5-1.119-2.5-2.5v-27.548c0-1.381 1.119-2.5 2.5-2.5s2.5 1.119 2.5 2.5v27.548c0 1.381-1.119 2.5-2.5 2.5z"/><path d="m153.271 161.721c-.628 0-1.283-.056-2.002-.171-1.276-.205-2.186-1.348-2.099-2.637.032-.479.055-.96.055-1.446v-18.227c0-1.233.899-2.282 2.118-2.471.651-.101 1.3-.152 1.928-.152 6.921 0 12.552 5.631 12.552 12.552s-5.631 12.552-12.552 12.552zm.955-20.043v14.983c3.716-.47 6.598-3.651 6.598-7.492s-2.883-7.021-6.598-7.491z"/><path d="m102.029 161.721c-6.922 0-12.553-5.631-12.553-12.552 0-7.549 6.675-13.608 14.48-12.4 1.219.189 2.117 1.238 2.117 2.471v18.227c0 .486.022.967.055 1.446.087 1.29-.822 2.433-2.099 2.637-.717.115-1.373.171-2 .171zm-.955-20.043c-3.716.471-6.598 3.651-6.598 7.492s2.882 7.021 6.598 7.492z"/><path d="m127.65 184.042c-14.654 0-26.576-11.922-26.576-26.576v-19.366c0-1.152.508-2.216 1.393-2.935.892-.726 2.051-1.005 3.174-.77 4.522.944 15.878 2.09 23.658-7.695.67-.842 1.669-1.364 2.74-1.43 1.078-.065 2.126.328 2.894 1.08 1.604 1.572 6.334 5.256 15.62 5.528 2.02.059 3.631 1.692 3.669 3.718.003.133.004.278.004.423v21.447c0 14.655-11.922 26.576-26.576 26.576zm-21.576-44.488v17.912c0 11.897 9.679 21.576 21.575 21.576 11.897 0 21.576-9.679 21.576-21.576v-20.641c-8.763-.507-14.054-3.665-16.832-6.028-8.813 10.125-21.004 9.591-26.319 8.757zm27.139-9.742c0 .002-.001.003-.003.003.001-.001.002-.002.003-.003zm-1.957-1.556h.01z"/><path d="m160.244 144.438c-.636 0-1.261-.242-1.736-.7-1.418-1.367-3.278-2.12-5.237-2.12-.372 0-.764.031-1.164.093-.719.112-1.454-.098-2.009-.573-.554-.475-.872-1.168-.872-1.897v-2.415c-8.763-.507-14.054-3.665-16.832-6.028-8.822 10.135-21.033 9.589-26.339 8.754-.077.612-.379 1.179-.853 1.586-.556.475-1.289.685-2.009.573-.4-.062-.792-.093-1.164-.093-1.728 0-3.356.573-4.711 1.656-.75.6-1.778.718-2.645.301s-1.417-1.292-1.417-2.253v-11.135c0-15.082 12.27-27.351 27.352-27.351h7.062c4.881 0 9.524 2.264 12.594 6.03 1.975-.829 4.091-1.26 6.226-1.26 8.962 0 16.253 7.291 16.253 16.253v18.08c0 1.003-.6 1.909-1.522 2.301-.316.133-.648.198-.977.198zm-6.018-7.784c1.215.092 2.397.358 3.518.786v-13.582c0-6.205-5.048-11.253-11.253-11.253-2.004 0-3.988.555-5.74 1.605-.569.341-1.251.441-1.893.281-.644-.161-1.196-.571-1.537-1.14-2.039-3.402-5.736-5.516-9.649-5.516h-7.062c-12.324 0-22.352 10.027-22.352 22.351v7.017c1.005-.318 2.05-.51 3.107-.567.236-.567.611-1.072 1.103-1.471.893-.726 2.051-1.005 3.174-.77 4.522.944 15.878 2.09 23.658-7.695.67-.842 1.669-1.364 2.74-1.43 1.078-.065 2.126.328 2.894 1.08 1.604 1.572 6.334 5.256 15.62 5.528 2.02.06 3.631 1.692 3.669 3.718.003.133.004.278.004.423v.635z"/><path d="m128 212.95c-1.435 0-2.5-1.166-2.5-2.5 0-1.563 1.438-2.756 2.99-2.45 1.095.205 2.01 1.224 2.01 2.45 0 1.356-1.089 2.5-2.5 2.5z"/><path d="m128 223.77c-1.451 0-2.5-1.187-2.5-2.5 0-1.585 1.447-2.755 2.99-2.45 1.046.196 2.01 1.176 2.01 2.45 0 1.407-1.145 2.5-2.5 2.5z"/><path d="m128 234.59c-1.328 0-2.5-1.066-2.5-2.5 0-1.179.842-2.229 2.01-2.45 1.536-.303 2.99.86 2.99 2.45 0 1.349-1.084 2.5-2.5 2.5z"/><path d="m52.54 245.41c-1.314 0-2.5-1.061-2.5-2.5 0-1.191.853-2.235 2.01-2.45 1.446-.304 2.99.784 2.99 2.45 0 1.41-1.165 2.5-2.5 2.5z"/><path d="m203.46 245.41c-1.339 0-2.5-1.083-2.5-2.5 0-2.305 2.789-3.235 4.27-1.77.436.475.73 1.022.73 1.77 0 1.365-1.112 2.5-2.5 2.5z"/><path d="m128 245.41c-1.38 0-2.5-1.132-2.5-2.5 0-1.658 1.529-2.756 2.99-2.45 1.152.216 2.01 1.253 2.01 2.45 0 1.417-1.164 2.5-2.5 2.5z"/><path d="m131.854 202.36h-8.073c-1.883 0-3.601-1.109-4.376-2.827l-4.776-10.605c-.146-.323-.221-.673-.221-1.027v-8.911c0-.867.449-1.673 1.188-2.128.739-.456 1.66-.495 2.436-.105 3.017 1.516 6.253 2.285 9.619 2.285 3.57 0 7.113-.901 10.246-2.607.774-.421 1.714-.404 2.473.046.758.451 1.223 1.268 1.223 2.149v9.271c0 .378-.086.75-.25 1.09l-5.168 10.662c-.8 1.645-2.495 2.707-4.321 2.707zm-7.943-5h7.818l4.862-10.032v-4.845c-5.52 1.98-11.687 2.06-17.184.243v4.638z"/><path d="m128 170.673c-3.93 0-7.59-1.946-9.791-5.205-.773-1.144-.473-2.698.672-3.471 1.144-.773 2.699-.472 3.471.672 1.271 1.881 3.382 3.004 5.648 3.004s4.378-1.123 5.648-3.004c.772-1.144 2.328-1.445 3.471-.672 1.145.773 1.445 2.327.672 3.471-2.201 3.26-5.861 5.205-9.791 5.205z"/><path d="m118.819 151.67c-1.267 0-2.252-.934-2.449-2.01-.271-1.429.667-2.696 1.96-2.94 1.493-.313 2.989.833 2.989 2.45 0 1.396-1.133 2.5-2.5 2.5z"/><path d="m137.18 151.67c-1.383 0-2.5-1.128-2.5-2.5 0-2.331 2.817-3.223 4.271-1.77.46.46.729 1.11.729 1.77 0 1.39-1.133 2.5-2.5 2.5z"/><path d="m175.398 256h-94.796c-1.407 0-2.77-.586-3.736-1.609-.966-1.022-1.476-2.415-1.396-3.819l1.829-43.837c.295-5.307 3.933-9.716 9.055-11.005l18.44-4.641 11.01-5.429c.608-.3 1.312-.339 1.95-.111.639.229 1.156.708 1.435 1.326l4.724 10.485h7.817l5.113-10.549c.291-.6.809-1.058 1.438-1.274s1.32-.173 1.917.123l11.01 5.429 18.44 4.641c5.122 1.29 8.76 5.698 9.053 10.971l1.832 43.893c.073 1.398-.437 2.781-1.397 3.799-.968 1.021-2.33 1.607-3.738 1.607zm-59.706-64.711-8.927 4.401c-.158.078-.324.139-.495.182l-18.697 4.706c-2.988.752-5.11 3.324-5.281 6.4l-1.829 43.838c-.003.053-.005.096.036.14.042.044.086.044.103.044h94.797c.017 0 .061 0 .103-.044.041-.044.039-.087.038-.104-.001-.012-.001-.024-.002-.036l-1.831-43.873c-.169-3.042-2.291-5.613-5.279-6.365l-18.697-4.706c-.171-.043-.337-.104-.495-.182l-8.991-4.433-4.069 8.396c-.798 1.645-2.493 2.707-4.319 2.707h-8.073c-1.883 0-3.601-1.109-4.376-2.827z"/><path d="m158.895 256c-1.381 0-2.5-1.119-2.5-2.5v-27.548c0-1.381 1.119-2.5 2.5-2.5s2.5 1.119 2.5 2.5v27.548c0 1.381-1.12 2.5-2.5 2.5z"/><path d="m97.105 256c-1.381 0-2.5-1.119-2.5-2.5v-27.548c0-1.381 1.119-2.5 2.5-2.5s2.5 1.119 2.5 2.5v27.548c0 1.381-1.119 2.5-2.5 2.5z"/><path d="m129.654 85.525c-1.866 0-3.571-.944-4.562-2.526l-9.426-15.063c-.093-.147-.252-.236-.427-.236h-44.409c-.384 0-.756.159-1.021.436l-15.078 15.762c-1.49 1.56-3.749 2.047-5.749 1.244-2.002-.803-3.296-2.716-3.296-4.873v-11.159c0-.778-.633-1.411-1.411-1.411h-8.263c-8.049 0-14.597-6.548-14.597-14.597v-38.505c.001-8.049 6.549-14.597 14.598-14.597h183.975c8.049 0 14.597 6.548 14.597 14.597v38.506c0 8.049-6.548 14.597-14.597 14.597h-8.263c-.778 0-1.411.633-1.411 1.411v11.159c0 2.157-1.294 4.07-3.296 4.873-2 .803-4.258.315-5.749-1.244l-15.079-15.764c-.265-.277-.636-.436-1.02-.436h-41.102c-.175 0-.334.088-.427.236l-9.426 15.063c-.989 1.583-2.694 2.527-4.561 2.527zm14.414-22.825h41.102c1.742 0 3.431.722 4.634 1.98l15.078 15.763c.047.049.117.121.274.059.157-.063.157-.165.157-.232v-11.16c0-3.535 2.876-6.411 6.411-6.411h8.263c5.292 0 9.597-4.305 9.597-9.597v-38.505c0-5.292-4.305-9.597-9.597-9.597h-183.974c-5.292 0-9.597 4.305-9.597 9.597v38.506c0 5.292 4.305 9.597 9.597 9.597h8.263c3.535 0 6.411 2.876 6.411 6.411v11.159c0 .067 0 .169.157.232.156.064.227-.011.274-.059l15.078-15.764c1.204-1.258 2.893-1.979 4.634-1.979h44.41c1.909 0 3.652.966 4.665 2.583l9.426 15.063c.148.237.498.237.646 0l9.426-15.063c1.013-1.617 2.756-2.583 4.665-2.583z"/><path d="m250.858 256h-75.46c-1.381 0-2.5-1.119-2.5-2.5s1.119-2.5 2.5-2.5c.017 0 .061 0 .103-.044.041-.044.039-.087.038-.104l-1.833-43.909c-.17-3.042-2.292-5.613-5.279-6.365l-3.307-.833c-1.111-.28-1.89-1.279-1.89-2.424s.778-2.145 1.89-2.424l15.134-3.81 11.01-5.428c.608-.3 1.312-.339 1.95-.111.639.229 1.156.708 1.435 1.326l4.724 10.485h7.818l5.111-10.549c.291-.599.809-1.058 1.438-1.274s1.319-.173 1.917.123l11.01 5.429 18.441 4.642c5.121 1.289 8.759 5.697 9.053 10.97.001.012.001.023.002.035l1.831 43.874c.076 1.37-.434 2.762-1.4 3.784s-2.328 1.607-3.736 1.607zm-70.319-5h70.319c.017 0 .062 0 .103-.044.042-.044.04-.088.039-.105l-1.832-43.889c-.178-3.069-2.298-5.633-5.28-6.384l-18.698-4.707c-.171-.043-.337-.104-.495-.182l-8.99-4.433-4.069 8.397c-.799 1.645-2.494 2.706-4.319 2.706h-8.073c-1.886 0-3.604-1.11-4.377-2.829l-3.712-8.242-8.927 4.401c-.158.078-.324.139-.495.182l-7.729 1.945c2.733 2.076 4.497 5.277 4.698 8.883l1.833 43.908c.005.131.007.262.004.393z"/><path d="m80.602 256h-75.46c-1.407 0-2.769-.586-3.735-1.608s-1.477-2.414-1.398-3.819l1.829-43.839c.296-5.308 3.934-9.716 9.055-11.005l18.441-4.642 11.01-5.429c.608-.3 1.312-.339 1.95-.111.639.229 1.156.708 1.435 1.326l4.724 10.485h7.818l5.111-10.549c.291-.599.809-1.058 1.438-1.274s1.32-.173 1.917.123l11.01 5.428 15.134 3.81c1.111.28 1.89 1.279 1.89 2.424s-.778 2.145-1.89 2.424l-3.307.833c-2.987.752-5.109 3.324-5.281 6.4l-1.829 43.838c-.001.012-.001.023-.002.036-.001.017-.003.06.038.104.041.045.085.045.102.045 1.381 0 2.5 1.119 2.5 2.5s-1.12 2.5-2.5 2.5zm-40.37-64.711-8.927 4.401c-.158.078-.324.139-.495.182l-18.698 4.707c-2.987.752-5.109 3.324-5.281 6.4l-1.829 43.838c-.003.051-.005.095.037.139.041.044.086.044.103.044h70.321c-.004-.135-.002-.27.005-.406l1.83-43.86c.202-3.629 1.968-6.838 4.701-8.917l-7.73-1.946c-.171-.043-.337-.104-.495-.182l-8.99-4.433-4.069 8.397c-.799 1.645-2.494 2.706-4.319 2.706h-8.073c-1.886 0-3.604-1.11-4.377-2.829zm37.733 59.423h.01z"/><path d="m60.946 47.964c-.62 0-1.243-.15-1.819-.453l-5.127-2.695-5.127 2.696c-1.326.696-2.9.583-4.111-.298-1.211-.88-1.806-2.343-1.552-3.818l.979-5.708-4.147-4.043c-1.071-1.043-1.45-2.577-.988-4 .463-1.423 1.67-2.442 3.15-2.658l5.733-.833 2.562-5.194c.662-1.342 2.004-2.176 3.501-2.176s2.839.834 3.501 2.176l2.562 5.194 5.732.833c1.481.216 2.688 1.234 3.151 2.658.462 1.423.083 2.956-.988 4l-4.147 4.043.979 5.709c.254 1.474-.341 2.937-1.552 3.816-.684.498-1.485.751-2.292.751zm-1.084-3.721h.01zm-14.74-12.628 2.97 2.895c.92.895 1.34 2.187 1.122 3.455l-.7 4.087 3.67-1.93c1.138-.598 2.496-.597 3.632 0l3.671 1.93-.7-4.087c-.218-1.268.202-2.56 1.123-3.456l2.969-2.894-4.104-.596c-1.272-.185-2.371-.983-2.939-2.136l-1.836-3.718-1.835 3.719c-.568 1.152-1.667 1.95-2.939 2.135zm19.348-1.551c-.001 0-.002.001-.002.002l.002-.002c-.001 0-.001 0 0 0z"/><path d="m97.946 47.964c-.62 0-1.243-.15-1.819-.453l-5.127-2.695-5.127 2.696c-1.326.696-2.9.583-4.111-.298-1.211-.88-1.806-2.343-1.552-3.818l.979-5.708-4.147-4.043c-1.071-1.043-1.45-2.577-.988-4 .463-1.423 1.67-2.442 3.15-2.658l5.733-.833 2.562-5.194c.662-1.342 2.004-2.176 3.501-2.176s2.839.834 3.501 2.176l2.562 5.194 5.732.833c1.481.216 2.688 1.234 3.151 2.658.462 1.423.083 2.956-.988 4l-4.147 4.043.979 5.709c.254 1.474-.341 2.937-1.552 3.816-.684.498-1.485.751-2.292.751zm-1.084-3.721h.01zm-14.74-12.628 2.97 2.895c.92.895 1.34 2.187 1.122 3.455l-.7 4.087 3.67-1.93c1.137-.598 2.495-.597 3.632 0l3.671 1.93-.7-4.087c-.218-1.268.202-2.56 1.123-3.456l2.969-2.894-4.104-.596c-1.272-.185-2.371-.983-2.939-2.136l-1.836-3.718-1.835 3.719c-.568 1.152-1.667 1.95-2.939 2.135zm19.348-1.551c-.001 0-.002.001-.002.002l.002-.002c-.001 0-.001 0 0 0z"/><path d="m134.946 47.964c-.62 0-1.243-.15-1.819-.453l-5.127-2.695-5.127 2.696c-1.325.696-2.901.583-4.111-.298-1.211-.88-1.806-2.343-1.552-3.818l.979-5.708-4.147-4.043c-1.071-1.043-1.45-2.577-.988-4 .463-1.423 1.67-2.442 3.15-2.658l5.733-.833 2.562-5.194c.662-1.342 2.004-2.176 3.501-2.176s2.839.834 3.501 2.176l2.562 5.194 5.732.833c1.481.216 2.688 1.234 3.151 2.658.462 1.423.083 2.956-.988 4l-4.147 4.043.979 5.709c.254 1.474-.341 2.937-1.552 3.816-.684.498-1.485.751-2.292.751zm-1.084-3.721h.01zm-14.74-12.628 2.97 2.895c.92.895 1.34 2.187 1.122 3.455l-.7 4.087 3.67-1.93c1.138-.598 2.496-.597 3.632 0l3.671 1.93-.7-4.087c-.218-1.268.202-2.56 1.123-3.456l2.969-2.894-4.104-.596c-1.272-.185-2.371-.983-2.939-2.136l-1.836-3.718-1.835 3.719c-.568 1.152-1.667 1.95-2.939 2.135zm19.348-1.551c-.001 0-.002.001-.002.002l.002-.002c-.001 0-.001 0 0 0z"/><path d="m171.946 47.964c-.62 0-1.243-.15-1.819-.453l-5.127-2.695-5.127 2.696c-1.325.696-2.9.583-4.111-.298-1.211-.88-1.806-2.343-1.552-3.818l.979-5.708-4.147-4.043c-1.071-1.043-1.45-2.577-.988-4 .463-1.423 1.67-2.442 3.15-2.658l5.733-.833 2.562-5.194c.662-1.342 2.004-2.176 3.501-2.176s2.839.834 3.501 2.176l2.562 5.194 5.732.833c1.481.216 2.688 1.234 3.151 2.658.462 1.423.083 2.956-.988 4l-4.147 4.043.979 5.709c.254 1.474-.341 2.937-1.552 3.816-.684.498-1.485.751-2.292.751zm-1.084-3.721h.01zm-14.74-12.628 2.97 2.895c.92.895 1.34 2.187 1.122 3.455l-.7 4.087 3.67-1.93c1.138-.598 2.496-.597 3.632 0l3.671 1.93-.7-4.087c-.218-1.268.202-2.56 1.123-3.456l2.969-2.894-4.104-.596c-1.272-.185-2.371-.983-2.939-2.136l-1.836-3.718-1.835 3.719c-.568 1.152-1.667 1.95-2.939 2.135zm19.348-1.551c-.001 0-.002.001-.002.002l.002-.002c-.001 0-.001 0 0 0z"/><path d="m208.946 47.964c-.62 0-1.243-.15-1.819-.453l-5.127-2.695-5.127 2.696c-1.325.696-2.9.583-4.111-.298-1.211-.88-1.806-2.343-1.552-3.818l.979-5.708-4.147-4.043c-1.071-1.043-1.45-2.577-.988-4 .463-1.423 1.67-2.442 3.15-2.658l5.733-.833 2.562-5.194c.662-1.342 2.004-2.176 3.501-2.176s2.839.834 3.501 2.176l2.562 5.194 5.732.833c1.481.216 2.688 1.234 3.151 2.658.462 1.423.083 2.956-.988 4l-4.147 4.043.979 5.709c.254 1.474-.341 2.937-1.552 3.816-.684.498-1.485.751-2.292.751zm-1.084-3.721h.01zm-14.74-12.628 2.97 2.895c.92.895 1.34 2.187 1.122 3.455l-.7 4.087 3.67-1.93c1.137-.598 2.495-.597 3.632 0l3.671 1.93-.7-4.087c-.218-1.268.202-2.56 1.123-3.456l2.969-2.894-4.104-.596c-1.272-.185-2.371-.983-2.939-2.136l-1.836-3.718-1.835 3.719c-.568 1.152-1.667 1.95-2.939 2.135zm19.348-1.551c-.001 0-.002.001-.002.002l.002-.002c-.001 0-.001 0 0 0z"/></svg>