<svg height="512" viewBox="0 0 128 128" width="512" xmlns="http://www.w3.org/2000/svg"><path d="m107.809 49.467a22.158 22.158 0 1 0 -28.275 0 26.117 26.117 0 0 0 -10.648 7.668l-.538-1.884a4.122 4.122 0 0 0 -5.093-2.829l-1.265.361a4.12 4.12 0 0 0 -2.853 4.963l-29.608 8.46a2.814 2.814 0 0 0 -1.929 3.479l.081.281-7.071 2.018a2.2 2.2 0 0 0 -1.51 2.711l.545 1.906-6.413 1.832a2.931 2.931 0 0 0 -5.568 1.821l2.646 9.263a2.939 2.939 0 0 0 3.633 2.018 2.935 2.935 0 0 0 2.057-3.414l6.412-1.832.545 1.905a2.2 2.2 0 0 0 2.1 1.592 2.212 2.212 0 0 0 .606-.086l7.066-2.019.08.281a2.821 2.821 0 0 0 2.716 2.038 2.789 2.789 0 0 0 .775-.1l2.272-.649a7.726 7.726 0 0 0 .535.969l-10.61 27.339a3.075 3.075 0 0 0 1.753 3.975 3.034 3.034 0 0 0 1.107.209 3.077 3.077 0 0 0 2.868-1.961l10.135-26.128a7.254 7.254 0 0 0 2.573 0l10.138 26.123a3.072 3.072 0 0 0 5.728-2.223l-10.609-27.34a7.765 7.765 0 0 0 1.272-4.259 7.965 7.965 0 0 0 -.063-.946l9.501-2.709v5.91a3 3 0 0 0 3 3h55.551a3 3 0 0 0 3-3v-14.493a26.038 26.038 0 0 0 -16.642-24.25z" fill="#e6e7e8"/><path d="m101.726 45.8a21.1 21.1 0 0 1 -24.108 0 25.01 25.01 0 0 0 -17.718 23.917v14.493a2 2 0 0 0 2 2h55.551a2 2 0 0 0 2-2v-14.493a25.009 25.009 0 0 0 -17.725-23.917z" fill="#6dc9f7"/><path d="m117.585 83.416h-55.826a1.862 1.862 0 0 1 -1.859-1.862v2.794a1.863 1.863 0 0 0 1.863 1.862h55.826a1.862 1.862 0 0 0 1.862-1.862v-2.794a1.862 1.862 0 0 1 -1.866 1.862z" fill="#fff"/><path d="m89.672 49.441-4.56 3.64 2.582 5.422h3.955l2.583-5.422z" fill="#fa759e"/><path d="m91.649 58.503h-3.955l-1.962 21.45 3.94 3 3.939-3z" fill="#fa759e"/><path d="m89.833 49.569 8.328 6.649 2.3-9.619a21.017 21.017 0 0 1 -10.628 2.97z" fill="#d4fbff"/><path d="m78.888 46.6 2.294 9.619 8.329-6.649a21.014 21.014 0 0 1 -10.623-2.97z" fill="#d4fbff"/><circle cx="89.672" cy="28.42" fill="#ffd7e5" r="21.158" transform="matrix(.383 -.924 .924 .383 29.099 100.39)"/><circle cx="89.672" cy="28.42" fill="#fa759e" r="16.926" transform="matrix(.383 -.924 .924 .383 29.099 100.39)"/><path d="m95.9 36.912a7.65 7.65 0 0 1 -4.4 2.03v1.858a1.528 1.528 0 0 1 -.412 1.1 1.606 1.606 0 0 1 -2.179 0 1.523 1.523 0 0 1 -.411-1.1v-1.8a13.3 13.3 0 0 1 -3.268-.706 9.364 9.364 0 0 1 -2.737-1.472 1.489 1.489 0 0 1 -.53-.588 1.92 1.92 0 0 1 -.147-.8 1.715 1.715 0 0 1 .368-1.089 1.056 1.056 0 0 1 .839-.471 1.409 1.409 0 0 1 .544.1 6.035 6.035 0 0 1 .663.339 10.853 10.853 0 0 0 2.664 1.294 9.1 9.1 0 0 0 2.751.412 5.2 5.2 0 0 0 3.047-.764 2.546 2.546 0 0 0 1.074-2.208 1.774 1.774 0 0 0 -.589-1.384 4.269 4.269 0 0 0 -1.471-.838q-.883-.309-2.473-.722a26.582 26.582 0 0 1 -3.59-1.133 6.214 6.214 0 0 1 -2.384-1.751 4.739 4.739 0 0 1 -1-3.178 5.487 5.487 0 0 1 1.707-4.063 7.828 7.828 0 0 1 4.469-2.078v-1.857a1.525 1.525 0 0 1 .412-1.1 1.606 1.606 0 0 1 2.179 0 1.529 1.529 0 0 1 .412 1.1v1.825a9.879 9.879 0 0 1 5.121 2.149 1.65 1.65 0 0 1 .707 1.383 1.714 1.714 0 0 1 -.369 1.089 1.079 1.079 0 0 1 -.868.471 1.532 1.532 0 0 1 -.515-.088 3.466 3.466 0 0 1 -.662-.354 11.189 11.189 0 0 0 -2.281-1.28 6.894 6.894 0 0 0 -2.546-.426 4.771 4.771 0 0 0 -2.914.809 2.618 2.618 0 0 0 -1.089 2.222 2.1 2.1 0 0 0 .618 1.575 4.115 4.115 0 0 0 1.56.927q.942.324 2.561.736a25.353 25.353 0 0 1 3.5 1.089 5.971 5.971 0 0 1 2.311 1.692 4.622 4.622 0 0 1 .956 3.076 5.383 5.383 0 0 1 -1.628 3.974z" fill="#fff"/><path d="m36.23 86.077-10.8 27.839a2.072 2.072 0 0 0 3.864 1.5l10.444-26.923a6.808 6.808 0 0 1 -3.508-2.416z" fill="#d4fbff"/><path d="m57.867 113.916-10.8-27.839a6.816 6.816 0 0 1 -3.508 2.416l10.441 26.922a2.072 2.072 0 1 0 3.863-1.5z" fill="#d4fbff"/><path d="m35.159 84.037a6.81 6.81 0 0 0 13.091-3.737z" fill="#0089ef"/><path d="m24.912 66.652-8.028 2.294a1.193 1.193 0 0 0 -.819 1.474l3.857 13.5a1.193 1.193 0 0 0 1.475.819l8.027-2.294z" fill="#0089ef"/><path d="m9.513 74.32h8.647v8.076h-8.647z" fill="#6dc9f7" transform="matrix(.962 -.275 .275 .962 -20.994 6.816)"/><path d="m11 84.177-2.644-9.263a1.938 1.938 0 0 0 -2.4-1.331 1.938 1.938 0 0 0 -1.332 2.4l2.647 9.263a1.938 1.938 0 0 0 3.729-1.069z" fill="#0089ef"/><path d="m56.361 54.436-30.561 8.731a1.815 1.815 0 0 0 -1.246 2.243l5.222 18.278a1.814 1.814 0 0 0 2.243 1.245l30.561-8.733z" fill="#6dc9f7"/><rect fill="#0089ef" height="30.613" rx="3.12" transform="matrix(.962 -.275 .275 .962 -15.232 19.809)" width="7.554" x="59.326" y="48.975"/><g fill="#3a2c60"><path d="m103.792 45.482a22.157 22.157 0 1 0 -28.239 0 26.08 26.08 0 0 0 -10.661 7.672l-.544-1.9a4.121 4.121 0 0 0 -5.094-2.83l-1.263.361a4.1 4.1 0 0 0 -2.853 4.963l-9.557 2.731a1 1 0 0 0 .274 1.962.973.973 0 0 0 .275-.04l9.544-2.726 5.669 19.843-29.6 8.456a.813.813 0 0 1 -1-.559l-5.224-18.279a.816.816 0 0 1 .558-1.007l8.3-2.371a1 1 0 1 0 -.549-1.923l-8.3 2.371a2.818 2.818 0 0 0 -1.928 3.479l.08.281-7.066 2.018a2.193 2.193 0 0 0 -1.514 2.711l.544 1.906-6.408 1.832a2.932 2.932 0 0 0 -5.57 1.821l2.648 9.263a2.931 2.931 0 0 0 5.686-1.396l6.413-1.832.544 1.9a2.186 2.186 0 0 0 2.714 1.511l7.066-2.019.081.281a2.816 2.816 0 0 0 2.701 2.038 2.836 2.836 0 0 0 .781-.1l2.281-.652a7.841 7.841 0 0 0 .534.952l-10.621 27.354a3.076 3.076 0 0 0 2.865 4.185 3.088 3.088 0 0 0 1.239-.262 3.053 3.053 0 0 0 1.625-1.7l10.134-26.115a7.528 7.528 0 0 0 2.576-.008l10.137 26.123a3.053 3.053 0 0 0 1.625 1.7 3.089 3.089 0 0 0 1.24.262 3.077 3.077 0 0 0 2.865-4.185l-10.61-27.34a7.768 7.768 0 0 0 1.271-4.26 7.351 7.351 0 0 0 -.064-.945l9.503-2.709v5.91a3 3 0 0 0 3 3h55.549a3 3 0 0 0 3-3v-14.494a26.02 26.02 0 0 0 -16.657-24.234zm-94.392 40.13a.941.941 0 0 1 -1.16-.645l-2.65-9.262a.938.938 0 0 1 .645-1.16.9.9 0 0 1 .258-.037.942.942 0 0 1 .9.681l2.646 9.263a.938.938 0 0 1 -.639 1.16zm2.078-3.42-1.672-5.842 6.394-1.826 1.669 5.842zm16.713-.434-7.066 2.019a.215.215 0 0 1 -.238-.132l-3.858-13.5a.219.219 0 0 1 .132-.238l7.067-2.018 3.657 12.8zm64.279-31.358a22 22 0 0 0 6.5-1.869l-1.415 5.928zm-3.862 9.1h2.127l1.831 19.99-2.894 2.2-2.894-2.2zm2.41-2h-2.692l-1.969-4.136 3.315-2.646 3.315 2.646zm-9.229-3.049-1.414-5.928a22 22 0 0 0 6.5 1.869zm-12.275-26.031a20.158 20.158 0 1 1 20.158 20.158 20.181 20.181 0 0 1 -20.158-20.158zm-12.244 23.295a2.1 2.1 0 0 1 1.271-1.009l1.263-.361a2.1 2.1 0 0 1 1.612.185 2.1 2.1 0 0 1 1.008 1.27l6.7 23.436a2.118 2.118 0 0 1 -1.455 2.621l-1.263.361a2.124 2.124 0 0 1 -2.621-1.456l-6.7-23.435a2.1 2.1 0 0 1 .185-1.612zm-28.912 63.338a1.072 1.072 0 1 1 -2-.775l10.242-26.392a7.783 7.783 0 0 0 1.844 1.171zm27.964.612a1.07 1.07 0 0 1 -1.386-.612l-10.082-25.98a7.848 7.848 0 0 0 1.846-1.168l10.235 26.372a1.074 1.074 0 0 1 -.613 1.388zm-8.861-33.711a5.807 5.807 0 0 1 -10.935 2.732l10.91-3.117c.009.131.025.255.025.385zm70.985 2.256a1 1 0 0 1 -1 1h-55.546a1 1 0 0 1 -1-1v-6.487l1.006-.287a4.113 4.113 0 0 0 5.048 2.706l1.264-.362a4.119 4.119 0 0 0 2.829-5.092l-5.472-19.143a24.059 24.059 0 0 1 11.915-8.629c.174.114.349.227.526.337l2.193 9.2a1 1 0 0 0 .648.713.978.978 0 0 0 .325.055 1 1 0 0 0 .624-.221l2.945-2.351 1.922 4.036-1.937 21.177a1 1 0 0 0 .391.887l3.94 3a1 1 0 0 0 1.21 0l3.94-3a1 1 0 0 0 .391-.887l-1.938-21.178 1.922-4.036 2.945 2.352a1 1 0 0 0 1.6-.55l2.194-9.2q.269-.168.533-.342a24.024 24.024 0 0 1 16.585 22.8z"/><path d="m37.77 60.749a1.009 1.009 0 0 0 .275-.039l3.856-1.1.714-.2a1 1 0 1 0 -.548-1.923l-.715.2-3.856 1.1a1 1 0 0 0 .274 1.962z"/></g></svg>