<?xml version="1.0" encoding="utf-8"?>
<!-- Generator: Adobe Illustrator 22.0.1, SVG Export Plug-In . SVG Version: 6.00 Build 0)  -->
<svg xmlns="http://www.w3.org/2000/svg" xmlns:xlink="http://www.w3.org/1999/xlink" version="1.1" x="0px" y="0px" viewBox="0 0 256 256" style="enable-background:new 0 0 256 256;" xml:space="preserve" width="512" height="512">
<style type="text/css">
	.st0{display:none;}
	.st1{display:inline;}
	.st2{fill:none;stroke:#6B1D1D;stroke-width:0.5;stroke-miterlimit:10;}
	.st3{fill:#3A312A;}
	.st4{fill:#F16C7A;}
	.st5{fill:#D7E057;}
	.st6{fill:#87796F;}
	.st7{fill:#CE4E61;}
	.st8{fill-rule:evenodd;clip-rule:evenodd;fill:#D7E057;}
	.st9{fill-rule:evenodd;clip-rule:evenodd;fill:#FCE8CB;}
	.st10{fill:#B9BC39;}
	.st11{fill:#8AC6DD;}
	.st12{fill:#FCE8CB;}
	.st13{fill:#CCAE8B;}
	.st14{fill:#6B5B51;}
	.st15{fill:#68A8BC;}
	.st16{fill:#F5978A;}
	.st17{fill-rule:evenodd;clip-rule:evenodd;fill:#F16C7A;}
	.st18{fill-rule:evenodd;clip-rule:evenodd;fill:#8AC6DD;}
</style>
<g id="Layer_1" class="st0">
	<g class="st1">
		<g>
			<line class="st2" x1="0" y1="4.829" x2="256" y2="4.829"/>
			<line class="st2" x1="0" y1="16.56" x2="256" y2="16.56"/>
			<line class="st2" x1="0" y1="28.29" x2="256" y2="28.29"/>
			<line class="st2" x1="0" y1="40.021" x2="256" y2="40.021"/>
			<line class="st2" x1="0" y1="51.751" x2="256" y2="51.751"/>
			<line class="st2" x1="0" y1="63.482" x2="256" y2="63.482"/>
			<line class="st2" x1="0" y1="75.213" x2="256" y2="75.213"/>
			<line class="st2" x1="0" y1="86.943" x2="256" y2="86.943"/>
			<line class="st2" x1="0" y1="98.674" x2="256" y2="98.674"/>
			<line class="st2" x1="0" y1="110.404" x2="256" y2="110.404"/>
			<line class="st2" x1="0" y1="122.135" x2="256" y2="122.135"/>
			<line class="st2" x1="0" y1="133.865" x2="256" y2="133.865"/>
			<line class="st2" x1="0" y1="145.596" x2="256" y2="145.596"/>
			<line class="st2" x1="0" y1="157.326" x2="256" y2="157.326"/>
			<line class="st2" x1="0" y1="169.057" x2="256" y2="169.057"/>
			<line class="st2" x1="0" y1="180.788" x2="256" y2="180.788"/>
			<line class="st2" x1="0" y1="192.518" x2="256" y2="192.518"/>
			<line class="st2" x1="0" y1="204.249" x2="256" y2="204.249"/>
			<line class="st2" x1="0" y1="215.979" x2="256" y2="215.979"/>
			<line class="st2" x1="0" y1="227.71" x2="256" y2="227.71"/>
			<line class="st2" x1="0" y1="239.44" x2="256" y2="239.44"/>
			<line class="st2" x1="0" y1="251.171" x2="256" y2="251.171"/>
		</g>
		<g>
			<line class="st2" x1="251.171" y1="0" x2="251.171" y2="256"/>
			<line class="st2" x1="239.44" y1="0" x2="239.44" y2="256"/>
			<line class="st2" x1="227.71" y1="0" x2="227.71" y2="256"/>
			<line class="st2" x1="215.979" y1="0" x2="215.979" y2="256"/>
			<line class="st2" x1="204.249" y1="0" x2="204.249" y2="256"/>
			<line class="st2" x1="192.518" y1="0" x2="192.518" y2="256"/>
			<line class="st2" x1="180.788" y1="0" x2="180.788" y2="256"/>
			<line class="st2" x1="169.057" y1="0" x2="169.057" y2="256"/>
			<line class="st2" x1="157.326" y1="0" x2="157.326" y2="256"/>
			<line class="st2" x1="145.596" y1="0" x2="145.596" y2="256"/>
			<line class="st2" x1="133.865" y1="0" x2="133.865" y2="256"/>
			<line class="st2" x1="122.135" y1="0" x2="122.135" y2="256"/>
			<line class="st2" x1="110.404" y1="0" x2="110.404" y2="256"/>
			<line class="st2" x1="98.674" y1="0" x2="98.674" y2="256"/>
			<line class="st2" x1="86.943" y1="0" x2="86.943" y2="256"/>
			<line class="st2" x1="75.213" y1="0" x2="75.213" y2="256"/>
			<line class="st2" x1="63.482" y1="0" x2="63.482" y2="256"/>
			<line class="st2" x1="51.751" y1="0" x2="51.751" y2="256"/>
			<line class="st2" x1="40.021" y1="0" x2="40.021" y2="256"/>
			<line class="st2" x1="28.29" y1="0" x2="28.29" y2="256"/>
			<line class="st2" x1="16.56" y1="0" x2="16.56" y2="256"/>
			<line class="st2" x1="4.829" y1="0" x2="4.829" y2="256"/>
		</g>
	</g>
</g>
<g id="Layer_2">
	<g>
		<g>
			<g>
				<path class="st5" d="M47.607,25.939c-0.974,11.564-13.025,13.389-13.025,13.389c10.347,0.487,12.925,14.059,12.925,14.059      c0.221-9.677,13.321-14.202,13.321-14.202C51.015,38.598,47.607,25.939,47.607,25.939z"/>
			</g>
		</g>
		<g>
			<g>
				<path class="st3" d="M60.918,37.688c-8.604-0.516-11.832-12.025-11.863-12.142c-0.19-0.702-0.856-1.161-1.584-1.102      c-0.725,0.066-1.298,0.642-1.359,1.367c-0.859,10.215-11.313,11.964-11.754,12.032c-0.763,0.116-1.313,0.791-1.273,1.561      c0.04,0.771,0.657,1.385,1.428,1.421c9.027,0.426,11.498,12.719,11.521,12.843c0.138,0.712,0.76,1.218,1.473,1.218      c0.042,0,0.084-0.002,0.126-0.005c0.764-0.064,1.357-0.693,1.375-1.46c0.194-8.509,12.191-12.777,12.313-12.819      c0.676-0.234,1.092-0.914,0.994-1.622S61.632,37.731,60.918,37.688z M47.352,48.034c-1.356-3.131-3.708-6.908-7.587-8.877      c2.931-1.405,6.409-3.913,8.202-8.273c1.551,3.071,4.2,6.881,8.334,8.723C53.294,41.247,49.378,44.013,47.352,48.034z"/>
			</g>
		</g>
		<g>
			<g>
				<path class="st5" d="M25.908,42.919c-0.689,8.179-9.212,9.471-9.212,9.471c7.318,0.344,9.142,9.944,9.142,9.944      c0.156-6.845,9.422-10.046,9.422-10.046C28.318,51.874,25.908,42.919,25.908,42.919z"/>
			</g>
		</g>
		<g>
			<g>
				<path class="st3" d="M35.35,50.792c-5.767-0.346-7.973-8.187-7.995-8.266c-0.189-0.702-0.864-1.164-1.581-1.102      c-0.726,0.065-1.3,0.643-1.361,1.368c-0.578,6.871-7.646,8.066-7.941,8.113c-0.763,0.116-1.313,0.791-1.273,1.561      c0.04,0.771,0.657,1.385,1.428,1.421c6.035,0.284,7.723,8.645,7.738,8.727c0.136,0.712,0.759,1.22,1.473,1.22      c0.041,0,0.083-0.002,0.124-0.005c0.766-0.063,1.359-0.693,1.377-1.461c0.131-5.709,8.332-8.633,8.412-8.661      c0.677-0.233,1.094-0.913,0.997-1.622C36.648,51.376,36.063,50.835,35.35,50.792z M25.765,57.586      c-0.924-1.885-2.34-3.947-4.447-5.279c1.855-1.041,3.697-2.63,4.87-4.917c1.058,1.874,2.654,3.955,4.942,5.225      C29.279,53.715,27.141,55.354,25.765,57.586z"/>
			</g>
		</g>
		<g>
			<g>
				<path class="st5" d="M25.908,16.262c-0.689,8.179-9.212,9.47-9.212,9.47c7.318,0.344,9.142,9.944,9.142,9.944      c0.156-6.844,9.422-10.045,9.422-10.045C28.318,25.216,25.908,16.262,25.908,16.262z"/>
			</g>
		</g>
		<g>
			<g>
				<path class="st3" d="M35.35,24.134c-5.767-0.345-7.973-8.186-7.995-8.265c-0.189-0.702-0.864-1.163-1.581-1.102      c-0.726,0.065-1.3,0.643-1.361,1.368c-0.578,6.87-7.646,8.066-7.941,8.113c-0.763,0.116-1.313,0.791-1.273,1.561      c0.04,0.771,0.657,1.385,1.428,1.421c6.035,0.284,7.723,8.645,7.738,8.727c0.136,0.712,0.759,1.22,1.473,1.22      c0.041,0,0.083-0.002,0.124-0.005c0.766-0.063,1.359-0.693,1.377-1.461c0.131-5.709,8.332-8.634,8.413-8.662      c0.676-0.234,1.093-0.913,0.996-1.622C36.648,24.718,36.063,24.176,35.35,24.134z M25.765,30.929      c-0.924-1.886-2.34-3.947-4.447-5.279c1.855-1.042,3.697-2.63,4.87-4.917c1.058,1.874,2.655,3.955,4.942,5.224      C29.279,27.057,27.141,28.696,25.765,30.929z"/>
			</g>
		</g>
		<g>
			<g>
				<path class="st6" d="M184.708,227.405H71.666c-3.406,0-6.167,2.761-6.167,6.167s2.761,6.167,6.167,6.167h113.042      c3.406,0,6.167-2.761,6.167-6.167S188.114,227.405,184.708,227.405z"/>
			</g>
		</g>
		<g>
			<g>
				<path class="st3" d="M184.708,225.904H71.666c-4.228,0-7.666,3.439-7.666,7.667s3.438,7.667,7.666,7.667h113.042      c4.228,0,7.667-3.439,7.667-7.667S188.936,225.904,184.708,225.904z M184.708,238.238H71.666c-2.573,0-4.666-2.094-4.666-4.667      s2.093-4.667,4.666-4.667h113.042c2.573,0,4.667,2.094,4.667,4.667S187.281,238.238,184.708,238.238z"/>
			</g>
		</g>
		<g>
			<g>
				<path class="st5" d="M157.48,107.269c15.262-13.812,23.969-33.436,23.969-54.02V28.863H74.925V52.76      c0,20.868,8.948,40.734,24.576,54.563l14.388,12.732c4.594,4.065,4.634,11.221,0.086,15.337l-15.08,13.648      c-15.262,13.813-23.969,33.436-23.969,54.021v24.385h106.524v-23.897c0-20.868-8.948-40.734-24.575-54.563l-14.388-12.732      c-4.594-4.065-4.634-11.221-0.086-15.337L157.48,107.269z"/>
			</g>
		</g>
		<g>
			<g>
				<path class="st3" d="M158.486,108.381c15.547-14.069,24.463-34.165,24.463-55.133V28.863c0-0.828-0.672-1.5-1.5-1.5H74.925      c-0.828,0-1.5,0.672-1.5,1.5v23.897c0,21.284,9.142,41.58,25.082,55.686l14.388,12.732c1.87,1.655,2.951,4.037,2.965,6.535      c0.015,2.497-1.04,4.891-2.892,6.566l-15.08,13.648c-15.547,14.069-24.463,34.165-24.463,55.133v24.385      c0,0.828,0.672,1.5,1.5,1.5h106.524c0.828,0,1.5-0.672,1.5-1.5v-23.897c0-21.283-9.142-41.58-25.081-55.686l-14.389-12.732      c-1.87-1.655-2.951-4.037-2.965-6.535c-0.015-2.497,1.04-4.891,2.892-6.566L158.486,108.381z M137.515,128.612      c0.019,3.351,1.468,6.545,3.977,8.765l14.389,12.732c15.297,13.537,24.069,33.015,24.069,53.439v22.397H76.425v-22.885      c0-20.122,8.557-39.406,23.477-52.908l15.08-13.648c2.483-2.248,3.896-5.458,3.878-8.808c-0.019-3.351-1.468-6.545-3.977-8.765      L100.495,106.2c-15.297-13.536-24.07-33.015-24.07-53.439V30.363h103.524v22.885c0,20.122-8.557,39.406-23.477,52.908      l-15.08,13.648C138.909,122.053,137.496,125.263,137.515,128.612z"/>
			</g>
		</g>
		<g>
			<g>
				<path class="st12" d="M156.874,148.986l-14.388-12.732c-4.594-4.065-4.634-11.221-0.086-15.337l15.08-13.648      c4.875-4.412,9.07-9.423,12.531-14.864H86.679c3.546,5.477,7.837,10.508,12.822,14.918l14.388,12.732      c4.594,4.065,4.634,11.221,0.086,15.337l-15.08,13.648c-15.262,13.813-23.969,33.436-23.969,54.021v24.385h106.524v-23.897      C181.449,182.681,172.501,162.815,156.874,148.986z"/>
			</g>
		</g>
		<g>
			<g>
				<path class="st3" d="M157.868,147.863l-14.389-12.732c-1.87-1.655-2.951-4.037-2.965-6.535c-0.015-2.497,1.04-4.891,2.892-6.566      l15.08-13.648c4.909-4.443,9.213-9.547,12.79-15.172c0.294-0.462,0.313-1.047,0.049-1.526c-0.263-0.48-0.767-0.778-1.314-0.778      h-27.499c-0.828,0-1.5,0.672-1.5,1.5s0.672,1.5,1.5,1.5h24.704c-3.107,4.492-6.712,8.604-10.743,12.252l-15.08,13.648      c-2.483,2.248-3.896,5.458-3.878,8.808c0.019,3.351,1.468,6.545,3.977,8.765l14.389,12.732      c15.297,13.537,24.069,33.015,24.069,53.439v22.397H76.425v-22.885c0-20.122,8.557-39.406,23.477-52.908l15.08-13.648      c2.483-2.248,3.896-5.458,3.878-8.808c-0.019-3.351-1.468-6.545-3.977-8.765L100.495,106.2      c-4.119-3.645-7.809-7.771-10.994-12.296h38.362c0.828,0,1.5-0.672,1.5-1.5s-0.672-1.5-1.5-1.5H86.679      c-0.55,0-1.055,0.301-1.317,0.783s-0.24,1.07,0.059,1.532c3.668,5.667,8.071,10.79,13.087,15.227l14.388,12.732      c1.87,1.655,2.951,4.037,2.965,6.535c0.015,2.497-1.04,4.891-2.892,6.566l-15.08,13.648      c-15.547,14.069-24.463,34.165-24.463,55.133v24.385c0,0.828,0.672,1.5,1.5,1.5h106.524c0.828,0,1.5-0.672,1.5-1.5v-23.897      C182.949,182.266,173.808,161.969,157.868,147.863z"/>
			</g>
		</g>
		<g>
			<g>
				<path class="st6" d="M184.708,16.571H71.666c-3.406,0-6.167,2.761-6.167,6.167c0,3.406,2.761,6.167,6.167,6.167h113.042      c3.406,0,6.167-2.761,6.167-6.167C190.875,19.332,188.114,16.571,184.708,16.571z"/>
			</g>
		</g>
		<g>
			<g>
				<path class="st3" d="M184.708,15.071h-84.689c-0.828,0-1.5,0.672-1.5,1.5s0.672,1.5,1.5,1.5h84.689      c2.573,0,4.667,2.094,4.667,4.667s-2.094,4.666-4.667,4.666H71.666c-2.573,0-4.666-2.093-4.666-4.666s2.093-4.667,4.666-4.667      h13.69c0.828,0,1.5-0.672,1.5-1.5s-0.672-1.5-1.5-1.5h-13.69c-4.228,0-7.666,3.439-7.666,7.667s3.438,7.666,7.666,7.666h113.042      c4.228,0,7.667-3.438,7.667-7.666S188.936,15.071,184.708,15.071z"/>
			</g>
		</g>
		<g>
			<g>
				<path class="st11" d="M64.893,176.681c-21.54-4.901-36.584-23.769-36.584-45.883c0-18.029,10.001-33.897,25.367-41.801      l-1.015,2.769c-1.131,3.084,0.453,6.502,3.538,7.633c0.676,0.248,1.367,0.365,2.047,0.365c2.425,0,4.703-1.494,5.586-3.903      l5.406-14.746c1.131-3.084-0.453-6.502-3.538-7.633l-14.746-5.406c-3.084-1.132-6.502,0.453-7.633,3.537      c-1.127,3.074,0.443,6.478,3.507,7.62c-6.614,3.67-12.533,8.596-17.336,14.538c-0.048,0.06-0.093,0.122-0.141,0.181      l-7.861,12.968c-3.31,7.476-5.079,15.618-5.079,23.877c0,13.442,4.645,26.591,13.081,37.026      c8.306,10.275,19.941,17.541,32.761,20.458c0.444,0.101,0.888,0.149,1.326,0.149c2.715,0,5.167-1.871,5.795-4.63      C70.103,180.598,68.097,177.41,64.893,176.681z"/>
			</g>
		</g>
		<g>
			<g>
				<path class="st3" d="M65.227,175.218c-20.854-4.745-35.417-23.011-35.417-44.419c0-15.845,8.011-30.272,21.148-38.527      c-0.756,3.563,1.206,7.245,4.725,8.535c0.826,0.304,1.688,0.457,2.563,0.457c3.112,0,5.923-1.964,6.994-4.886l5.406-14.746      c0.685-1.868,0.602-3.891-0.235-5.696s-2.326-3.177-4.194-3.861l-14.746-5.406c-1.867-0.685-3.891-0.603-5.696,0.235      c-1.806,0.837-3.177,2.326-3.861,4.194c-1.073,2.928-0.18,6.114,2.006,8.094c-5.977,3.641-11.214,8.22-15.596,13.641      l-0.142,0.182c-0.519,0.646-0.415,1.59,0.23,2.109c0.646,0.517,1.591,0.417,2.108-0.23l0.139-0.178      c4.66-5.767,10.346-10.533,16.896-14.169c0.512-0.284,0.813-0.84,0.769-1.424s-0.424-1.089-0.972-1.293      c-2.286-0.853-3.462-3.408-2.623-5.698c0.409-1.116,1.229-2.006,2.307-2.506c1.08-0.5,2.287-0.55,3.401-0.141l14.746,5.406      c1.116,0.409,2.006,1.229,2.506,2.307s0.55,2.286,0.141,3.401l-5.406,14.746c-0.64,1.746-2.319,2.919-4.178,2.919      c-0.521,0-1.036-0.092-1.53-0.273c-2.304-0.845-3.49-3.405-2.646-5.708l1.016-2.769c0.213-0.58,0.048-1.231-0.415-1.641      s-1.129-0.49-1.68-0.21C36.842,95.97,26.81,112.499,26.81,130.799c0,22.818,15.523,42.287,37.751,47.345      c2.393,0.545,3.896,2.934,3.351,5.325c-0.464,2.039-2.245,3.463-4.332,3.463c-0.334,0-0.668-0.037-0.993-0.111      c-12.493-2.844-23.831-9.925-31.928-19.939c-8.22-10.167-12.746-22.981-12.746-36.082c0-7.909,1.712-15.955,4.95-23.27      c0.335-0.758-0.008-1.644-0.765-1.979c-0.756-0.334-1.645,0.007-1.979,0.765c-3.405,7.694-5.206,16.16-5.206,24.484      c0,13.784,4.764,27.269,13.414,37.969c8.517,10.535,20.447,17.985,33.596,20.979c0.544,0.123,1.102,0.186,1.657,0.186      c3.496,0,6.48-2.384,7.258-5.797C71.748,180.13,69.231,176.13,65.227,175.218z"/>
			</g>
		</g>
		<g>
			<g>
				<path class="st11" d="M226.508,88.318c-8.306-10.275-19.941-17.541-32.761-20.458c-3.206-0.729-6.392,1.277-7.121,4.481      c-0.729,3.204,1.277,6.392,4.481,7.121c21.54,4.901,36.584,23.769,36.584,45.883c0,5.562-0.959,10.915-2.727,15.895      l-7.294,13.213c-4.102,5.224-9.299,9.582-15.346,12.693l1.015-2.768c1.131-3.085-0.453-6.503-3.538-7.633      c-3.084-1.133-6.502,0.453-7.633,3.537l-5.406,14.746c-0.543,1.482-0.475,3.118,0.188,4.55s1.868,2.541,3.35,3.084l14.746,5.406      c0.676,0.248,1.367,0.365,2.047,0.365c2.424,0,4.703-1.494,5.586-3.903c1.127-3.074-0.443-6.478-3.507-7.62      c6.614-3.67,12.533-8.596,17.336-14.537c8.435-10.435,13.081-23.585,13.081-37.027      C239.588,111.903,234.943,98.753,226.508,88.318z"/>
			</g>
		</g>
		<g>
			<g>
				<path class="st3" d="M227.675,87.375c-8.519-10.536-20.449-17.986-33.596-20.978c-1.943-0.442-3.938-0.101-5.621,0.959      s-2.854,2.712-3.295,4.652c-0.912,4.005,1.604,8.005,5.61,8.917c20.854,4.744,35.417,23.01,35.417,44.419      c0,5.278-0.889,10.458-2.641,15.394c-0.276,0.781,0.132,1.639,0.912,1.916c0.778,0.275,1.638-0.132,1.916-0.912      c1.866-5.26,2.813-10.776,2.813-16.397c0-22.819-15.523-42.288-37.751-47.345c-1.158-0.264-2.146-0.963-2.778-1.969      s-0.836-2.198-0.572-3.356c0.264-1.159,0.962-2.146,1.968-2.779c1.004-0.633,2.196-0.836,3.356-0.572      c12.493,2.842,23.832,9.923,31.928,19.938c8.221,10.168,12.747,22.982,12.747,36.083s-4.526,25.916-12.747,36.083      c-4.66,5.766-10.345,10.533-16.896,14.17c-0.513,0.284-0.813,0.84-0.769,1.424s0.424,1.089,0.973,1.293      c2.286,0.852,3.463,3.408,2.623,5.698c-0.641,1.746-2.319,2.919-4.178,2.919c-0.521,0-1.037-0.092-1.531-0.273l-14.747-5.406      c-1.099-0.402-2.012-1.242-2.504-2.306c-0.5-1.079-0.55-2.287-0.142-3.402l5.406-14.746c0.409-1.116,1.229-2.006,2.307-2.506      c1.08-0.498,2.288-0.549,3.401-0.14c1.116,0.409,2.006,1.229,2.506,2.307s0.55,2.286,0.141,3.401l-1.015,2.769      c-0.213,0.581-0.048,1.231,0.415,1.641c0.464,0.411,1.13,0.492,1.68,0.21c6.182-3.18,11.511-7.587,15.839-13.1      c0.512-0.652,0.398-1.595-0.253-2.106c-0.653-0.512-1.596-0.397-2.106,0.253c-3.242,4.13-7.081,7.597-11.447,10.344      c0.335-1.566,0.154-3.192-0.531-4.673c-0.837-1.806-2.326-3.177-4.193-3.861c-1.869-0.685-3.892-0.602-5.697,0.234      c-1.805,0.837-3.177,2.326-3.861,4.194l-5.406,14.746c-0.685,1.868-0.601,3.891,0.235,5.697c0.825,1.78,2.354,3.188,4.194,3.86      l14.746,5.406c0.826,0.304,1.689,0.457,2.564,0.457c3.111,0,5.922-1.963,6.994-4.886c1.073-2.928,0.18-6.115-2.007-8.094      c5.977-3.642,11.214-8.221,15.593-13.638c8.65-10.7,13.414-24.185,13.414-37.97C241.088,111.561,236.324,98.076,227.675,87.375z      "/>
			</g>
		</g>
		<g>
			<g>
				<path class="st10" d="M170.447,30.401v22.85c0,13.41-3.82,26.45-10.78,37.65h9.5c6.96-11.2,10.78-24.24,10.78-37.65v-22.85      H170.447z"/>
			</g>
		</g>
		<g>
			<g>
				<path class="st13" d="M155.877,150.111l-14.39-12.73c-2.51-2.23-3.95-5.42-3.97-8.77c-0.02-3.35,1.39-6.56,3.88-8.81      l15.08-13.65c4.03-3.64,7.63-7.75,10.74-12.25h-9.5c-3.11,4.5-6.71,8.61-10.74,12.25l-15.08,13.65      c-2.49,2.25-3.9,5.46-3.88,8.81c0.02,3.35,1.46,6.54,3.97,8.77l14.39,12.73c15.3,13.53,24.07,33.01,24.07,53.44v22.4h9.5v-22.4      C179.947,183.121,171.177,163.642,155.877,150.111z"/>
			</g>
		</g>
		<g>
			<g>
				<path class="st14" d="M184.707,228.901h-2.92c-0.11,0.03-0.22,0.05-0.34,0.05h-8.09c2.27,0.32,4.02,2.27,4.02,4.62      c0,2.57-2.1,4.67-4.67,4.67h12c2.57,0,4.67-2.1,4.67-4.67C189.377,231.001,187.277,228.901,184.707,228.901z"/>
			</g>
		</g>
		<g>
			<g>
				<path class="st14" d="M184.707,18.071h-12c2.57,0,4.67,2.09,4.67,4.67c0,2.57-2.1,4.66-4.67,4.66h12c2.57,0,4.67-2.09,4.67-4.66      C189.377,20.161,187.277,18.071,184.707,18.071z"/>
			</g>
		</g>
	</g>
</g>
</svg>
