<svg id="Layer_35" enable-background="new 0 0 64 64" height="512" viewBox="0 0 64 64" width="512" xmlns="http://www.w3.org/2000/svg"><path d="m62 48v14h-33v-6h4 6v-4h6v-4h2 6z" fill="#b4dd7f"/><path d="m53 33v15h-6v-12c0-.55-.45-1-1-1h-7v-5-1h7 3c2.21 0 4 1.79 4 4z" fill="#cf9e76"/><path d="m39 52v4h-6v-20-7h6v1 5z" fill="#cf9e76"/><path d="m33 29v7h-1c-2.21 0-4-1.79-4-4v-8c0-5.52 4.48-10 10-10h1 1 3.17c1.85 0 3.66-.51 5.24-1.48l10.03-6.17c.36-.23.79-.35 1.22-.35.64 0 1.23.26 1.65.69.43.42.69 1.01.69 1.65v.36c0 .81-.42 1.56-1.1 1.99l-13.02 8.14c-1.17.73-1.88 2.01-1.88 3.39v6.78h-7z" fill="#fcd770"/><path d="m19 44v15c0 .83-.34 1.58-.88 2.12s-1.29.88-2.12.88c-1.66 0-3-1.34-3-3v-20h6z" fill="#838f9b"/><path d="m13 39v20c0 1.66-1.34 3-3 3-.83 0-1.58-.34-2.12-.88s-.88-1.29-.88-2.12v-15-5z" fill="#838f9b"/><path d="m19 39h-6-6v5h-2c-1.66 0-3-1.34-3-3v-8c0-4.56 2.77-8.47 6.72-10.14l4.28 5.14 3.8-5.32c1.51.55 2.87 1.43 3.98 2.54 1.99 1.99 3.22 4.74 3.22 7.78v8c0 1.66-1.34 3-3 3h-2z" fill="#b4dd7f"/><g fill="#f0d0b4"><path d="m16.8 22.68-3.8 5.32-4.28-5.14c1.31-.55 2.76-.86 4.28-.86 1.34 0 2.62.24 3.8.68z"/><circle cx="13" cy="16" r="6"/><circle cx="39" cy="8" r="6"/></g><path d="m48.41 19.673 13.021-8.138c.983-.614 1.569-1.672 1.569-2.831v-.366c0-1.84-1.497-3.338-3.338-3.338-.618 0-1.224.171-1.75.495l-10.026 6.17c-1.196.737-2.545 1.16-3.937 1.281 1.266-1.267 2.051-3.017 2.051-4.946 0-3.86-3.141-7-7-7s-7 3.14-7 7c0 2.237 1.058 4.226 2.696 5.509-4.456 1.406-7.696 5.577-7.696 10.491v8c0 2.757 2.243 5 5 5v18h-4v8h35v-16h-9v-14c0-2.757-2.243-5-5-5h-2.001l.001-5.783c0-1.041.527-1.992 1.41-2.544zm-14.41-11.673c0-2.757 2.243-5 5-5s5 2.243 5 5-2.243 5-5 5-5-2.243-5-5zm27 53h-31v-4h10v-1-3h6v-4h15zm-21-25h6v11h-2v4h-4zm9-6c1.654 0 3 1.346 3 3v14h-4v-11c0-1.103-.897-2-2-2h-6-1-1v17 4h-4v-25h10.999 1zm-4-7.783-.001 5.783h-10.999v-8h-2v15c-1.654 0-3-1.346-3-3v-8c0-4.962 4.037-9 9-9h5.17c2.037 0 4.03-.564 5.765-1.632l10.026-6.17c.211-.13.453-.198.701-.198.737 0 1.338.601 1.338 1.338v.366c0 .465-.235.889-.629 1.135l-13.021 8.139c-1.472.919-2.35 2.504-2.35 4.239z"/><path d="m17.032 21.712c1.792-1.269 2.968-3.354 2.968-5.712 0-3.86-3.141-7-7-7s-7 3.14-7 7c0 2.358 1.176 4.443 2.968 5.712-4.637 1.662-7.968 6.087-7.968 11.288v8c0 2.206 1.794 4 4 4h1v14c0 2.206 1.794 4 4 4 1.201 0 2.266-.542 3-1.382.734.84 1.799 1.382 3 1.382 2.206 0 4-1.794 4-4v-14h1c2.206 0 4-1.794 4-4v-8c0-5.201-3.331-9.626-7.968-11.288zm-9.032-5.712c0-2.757 2.243-5 5-5s5 2.243 5 5-2.243 5-5 5-5-2.243-5-5zm7.169 7.244-2.23 3.121-2.514-3.016c.824-.221 1.684-.349 2.575-.349.745 0 1.47.088 2.169.244zm-5.169 37.756c-1.103 0-2-.897-2-2v-19h4v19c0 1.103-.897 2-2 2zm6 0c-1.103 0-2-.897-2-2v-19h4v19c0 1.103-.897 2-2 2zm7-20c0 1.103-.897 2-2 2h-1v-14h-2v9h-10v-9h-2v14h-1c-1.103 0-2-.897-2-2v-8c0-3.876 2.221-7.236 5.452-8.895l4.608 5.53 4.088-5.723c3.447 1.581 5.852 5.055 5.852 9.088z"/><path d="m57 57h2v2h-2z"/><path d="m53 57h2v2h-2z"/><path d="m49 57h2v2h-2z"/></svg>